<svg width="29" height="29" viewBox="0 0 29 29" fill="none" xmlns="http://www.w3.org/2000/svg">
<rect x="0.25" y="0.25" width="28.0343" height="28.0343" rx="6.09095" fill="white"/>
<rect x="0.25" y="0.25" width="28.0343" height="28.0343" rx="6.09095" stroke="#E3E7F1" stroke-width="0.5"/>
<path fill-rule="evenodd" clip-rule="evenodd" d="M6.5 6.21853C6.5 6.15774 6.54935 6.1084 6.61015 6.1084H12.3266C12.3875 6.1084 12.4367 6.15774 12.4367 6.21853V8.57887C12.4367 8.63977 12.3875 8.689 12.3266 8.689H6.61015C6.54935 8.689 6.5 8.63977 6.5 8.57887V6.21853ZM6.5 12.9282C6.5 12.8674 6.54935 12.8181 6.61015 12.8181H12.3266C12.3875 12.8181 12.4367 12.8674 12.4367 12.9282V15.2887C12.4367 15.3495 12.3875 15.3988 12.3266 15.3988H6.61015C6.54935 15.3988 6.5 15.3495 6.5 15.2887V12.9282ZM6.61015 19.5279C6.54935 19.5279 6.5 19.5771 6.5 19.638V21.9984C6.5 22.0592 6.54935 22.1085 6.61015 22.1085H12.3266C12.3875 22.1085 12.4367 22.0592 12.4367 21.9984V19.638C12.4367 19.5771 12.3875 19.5279 12.3266 19.5279H6.61015ZM9.8556 9.57332C9.8556 9.51253 9.90484 9.46319 9.96575 9.46319H15.6822C15.743 9.46319 15.7923 9.51253 15.7923 9.57332V11.9338C15.7923 11.9946 15.743 12.0439 15.6822 12.0439H9.96575C9.90484 12.0439 9.8556 11.9946 9.8556 11.9338V9.57332ZM9.96575 16.173C9.90484 16.173 9.8556 16.2223 9.8556 16.2831V18.6435C9.8556 18.7044 9.90484 18.7536 9.96575 18.7536H15.6822C15.743 18.7536 15.7923 18.7044 15.7923 18.6435V16.2831C15.7923 16.2223 15.743 16.173 15.6822 16.173H9.96575Z" fill="#315EFE"/>
<path fill-rule="evenodd" clip-rule="evenodd" d="M13.207 6.21853C13.207 6.15774 13.2564 6.1084 13.3172 6.1084H19.0337C19.0945 6.1084 19.1439 6.15774 19.1439 6.21853V8.57887C19.1439 8.63977 19.0945 8.689 19.0337 8.689H13.3172C13.2564 8.689 13.207 8.63977 13.207 8.57887V6.21853ZM13.207 12.9282C13.207 12.8674 13.2564 12.8181 13.3172 12.8181H19.0337C19.0945 12.8181 19.1439 12.8674 19.1439 12.9282V15.2887C19.1439 15.3495 19.0945 15.3988 19.0337 15.3988H13.3172C13.2564 15.3988 13.207 15.3495 13.207 15.2887V12.9282ZM13.3172 19.5279C13.2564 19.5279 13.207 19.5771 13.207 19.638V21.9984C13.207 22.0592 13.2564 22.1085 13.3172 22.1085H19.0337C19.0945 22.1085 19.1439 22.0592 19.1439 21.9984V19.638C19.1439 19.5771 19.0945 19.5279 19.0337 19.5279H13.3172ZM16.5626 9.57332C16.5626 9.51253 16.612 9.46319 16.6728 9.46319H22.3892C22.4501 9.46319 22.4994 9.51253 22.4994 9.57332V11.9338C22.4994 11.9946 22.4501 12.0439 22.3892 12.0439H16.6728C16.612 12.0439 16.5626 11.9946 16.5626 11.9338V9.57332ZM16.6728 16.173C16.612 16.173 16.5626 16.2223 16.5626 16.2831V18.6435C16.5626 18.7044 16.612 18.7536 16.6728 18.7536H22.3892C22.4501 18.7536 22.4994 18.7044 22.4994 18.6435V16.2831C22.4994 16.2223 22.4501 16.173 22.3892 16.173H16.6728Z" fill="#00D3ED"/>
</svg>
