<svg preserveAspectRatio="none" width="100%" height="100%" overflow="visible" style="display: block;" viewBox="0 0 16 16" fill="none" xmlns="http://www.w3.org/2000/svg">
<g id="chat messages">
<g id="icon">
<path fill-rule="evenodd" clip-rule="evenodd" d="M4.22462 8L3.75093 9.89475L6.11938 8H8.8C9.24184 8 9.6 7.64185 9.6 7.2V2.4C9.6 1.95815 9.24184 1.6 8.8 1.6H2.4C1.95816 1.6 1.6 1.95815 1.6 2.4V7.2C1.6 7.64185 1.95816 8 2.4 8H4.22462ZM2.4 12L3.2 8.8H2.4C2.39179 8.8 2.3836 8.79994 2.37543 8.79982C1.5031 8.78668 0.8 8.07548 0.8 7.2V2.4C0.8 1.51631 1.51635 0.8 2.4 0.8H8.8C9.68366 0.8 10.4 1.51631 10.4 2.4V7.2C10.4 8.08369 9.68366 8.8 8.8 8.8H6.4L2.4 12Z" fill="currentColor"/>
<path fill-rule="evenodd" clip-rule="evenodd" d="M5.6 9.44V11.2C5.6 12.0837 6.31634 12.8 7.2 12.8H9.6L13.6 16L12.8 12.8H13.6L13.6246 12.7998C14.4969 12.7867 15.2 12.0755 15.2 11.2V6.4C15.2 5.51631 14.4837 4.8 13.6 4.8H10.4V5.6H13.6C14.0418 5.6 14.4 5.95815 14.4 6.4V11.2C14.4 11.6419 14.0418 12 13.6 12H11.7754L12.2491 13.8948L9.88062 12H7.2C6.75816 12 6.4 11.6419 6.4 11.2V8.8L5.6 9.44Z" fill="currentColor"/>
</g>
</g>
</svg>
