<svg preserveAspectRatio="none" width="100%" height="100%" overflow="visible" style="display: block;" viewBox="0 0 14 14" fill="none" xmlns="http://www.w3.org/2000/svg">
<g id="clipboard">
<g id="icon">
<path fill-rule="evenodd" clip-rule="evenodd" d="M10.0912 5.79415L7.08599 10.302L3.99 7.98L4.41 7.42L6.91401 9.29801L9.50878 5.40586L10.0912 5.79415Z" fill="currentColor"/>
<path fill-rule="evenodd" clip-rule="evenodd" d="M2.45 2.8V11.9C2.45 12.0933 2.6067 12.25 2.8 12.25H11.2C11.3933 12.25 11.55 12.0933 11.55 11.9V2.8H12.25V11.9C12.25 12.4799 11.7799 12.95 11.2 12.95H2.8C2.2201 12.95 1.75 12.4799 1.75 11.9V2.8H2.45Z" fill="currentColor"/>
<path fill-rule="evenodd" clip-rule="evenodd" d="M5.28501 1.75C5.44715 0.951216 6.15337 0.35 7 0.35C7.84664 0.35 8.55285 0.951216 8.71499 1.75H9.1C9.6799 1.75 10.15 2.2201 10.15 2.8V3.85H3.85V2.8C3.85 2.2201 4.3201 1.75 4.9 1.75H5.28501ZM5.6 2.1V2.45H4.9C4.7067 2.45 4.55 2.6067 4.55 2.8V3.15H9.45V2.8C9.45 2.6067 9.2933 2.45 9.1 2.45H8.4V2.1H8.05C8.05 1.5201 7.5799 1.05 7 1.05C6.4201 1.05 5.95 1.5201 5.95 2.1H5.6Z" fill="currentColor"/>
<path fill-rule="evenodd" clip-rule="evenodd" d="M10.0912 5.79415L7.08599 10.302L3.99 7.98L4.41 7.42L6.91401 9.29801L9.50878 5.40586L10.0912 5.79415Z" stroke="var(--stroke-0, #858B9C)" stroke-width="0.2"/>
<path fill-rule="evenodd" clip-rule="evenodd" d="M2.45 2.8V11.9C2.45 12.0933 2.6067 12.25 2.8 12.25H11.2C11.3933 12.25 11.55 12.0933 11.55 11.9V2.8H12.25V11.9C12.25 12.4799 11.7799 12.95 11.2 12.95H2.8C2.2201 12.95 1.75 12.4799 1.75 11.9V2.8H2.45Z" stroke="var(--stroke-0, #858B9C)" stroke-width="0.2"/>
<path fill-rule="evenodd" clip-rule="evenodd" d="M5.28501 1.75C5.44715 0.951216 6.15337 0.35 7 0.35C7.84664 0.35 8.55285 0.951216 8.71499 1.75H9.1C9.6799 1.75 10.15 2.2201 10.15 2.8V3.85H3.85V2.8C3.85 2.2201 4.3201 1.75 4.9 1.75H5.28501ZM5.6 2.1V2.45H4.9C4.7067 2.45 4.55 2.6067 4.55 2.8V3.15H9.45V2.8C9.45 2.6067 9.2933 2.45 9.1 2.45H8.4V2.1H8.05C8.05 1.5201 7.5799 1.05 7 1.05C6.4201 1.05 5.95 1.5201 5.95 2.1H5.6Z" stroke="var(--stroke-0, #858B9C)" stroke-width="0.2"/>
</g>
</g>
</svg>
