<svg preserveAspectRatio="none" width="100%" height="100%" overflow="visible" style="display: block;" viewBox="0 0 14 14" fill="none" xmlns="http://www.w3.org/2000/svg">
<g id="folder">
<path id="icon" fill-rule="evenodd" clip-rule="evenodd" d="M2.1 0.7C1.3268 0.7 0.7 1.3268 0.7 2.1V11.2C0.7 11.9732 1.3268 12.6 2.1 12.6H11.9C12.6732 12.6 13.3 11.9732 13.3 11.2V3.5C13.3 2.7268 12.6732 2.1 11.9 2.1H5.6C5.6 1.3268 4.9732 0.7 4.2 0.7H2.1ZM1.4 2.8V11.2C1.4 11.5866 1.7134 11.9 2.1 11.9H11.9C12.2866 11.9 12.6 11.5866 12.6 11.2V3.5C12.6 3.1134 12.2866 2.8 11.9 2.8H1.4Z" fill="currentColor" stroke="var(--stroke-0, #858B9C)" stroke-width="0.2"/>
</g>
</svg>
