<svg preserveAspectRatio="none" width="100%" height="100%" overflow="visible" style="display: block;" viewBox="0 0 14 14.009" fill="none" xmlns="http://www.w3.org/2000/svg">
<g id="magic wand">
<g id="icon">
<path fill-rule="evenodd" clip-rule="evenodd" d="M12.8475 5.15649L11.4475 6.55649L10.9525 6.06152L12.3525 4.66152L12.8475 5.15649ZM10.0475 7.95649L4.44749 13.5565L3.95251 13.0615L9.55251 7.46152L10.0475 7.95649Z" fill="currentColor"/>
<path d="M9.9355 4.17643C9.86278 3.37219 9.28102 2.7873 8.48109 2.71419C9.28102 2.64108 9.86278 2.05618 9.9355 1.25195C10.0082 2.05618 10.59 2.64108 11.3899 2.71419C10.59 2.7873 10.0082 3.37219 9.9355 4.17643Z" fill="currentColor"/>
<path d="M6.73585 6.589C6.66313 5.78477 6.08137 5.19987 5.28145 5.12676C6.08137 5.05365 6.66313 4.46875 6.73585 3.66452C6.80857 4.46875 7.39034 5.05365 8.19026 5.12676C7.39034 5.19987 6.73585 5.78477 6.73585 6.589Z" fill="currentColor"/>
<path d="M5.64509 2.93348C5.57237 2.12925 4.99061 1.54436 4.19069 1.47124C4.99061 1.39813 5.57237 0.813236 5.64509 0.00900549C5.71781 0.813236 6.29958 1.39813 7.0995 1.47124C6.29958 1.54436 5.64509 2.12925 5.64509 2.93348Z" fill="currentColor"/>
<path d="M2.15441 4.39577C2.08169 3.59154 1.49992 3.00665 0.7 2.93354C1.49992 2.86042 2.08169 2.27553 2.15441 1.4713C2.22713 2.27553 2.80889 2.86042 3.60881 2.93354C2.80889 3.00665 2.22713 3.59154 2.15441 4.39577Z" fill="currentColor"/>
<path fill-rule="evenodd" clip-rule="evenodd" d="M12.8475 5.15649L11.4475 6.55649L10.9525 6.06152L12.3525 4.66152L12.8475 5.15649ZM10.0475 7.95649L4.44749 13.5565L3.95251 13.0615L9.55251 7.46152L10.0475 7.95649Z" stroke="var(--stroke-0, #858B9C)" stroke-width="0.2"/>
<path d="M9.9355 4.17643C9.86278 3.37219 9.28102 2.7873 8.48109 2.71419C9.28102 2.64108 9.86278 2.05618 9.9355 1.25195C10.0082 2.05618 10.59 2.64108 11.3899 2.71419C10.59 2.7873 10.0082 3.37219 9.9355 4.17643Z" stroke="var(--stroke-0, #858B9C)" stroke-width="0.2"/>
<path d="M6.73585 6.589C6.66313 5.78477 6.08137 5.19987 5.28145 5.12676C6.08137 5.05365 6.66313 4.46875 6.73585 3.66452C6.80857 4.46875 7.39034 5.05365 8.19026 5.12676C7.39034 5.19987 6.73585 5.78477 6.73585 6.589Z" stroke="var(--stroke-0, #858B9C)" stroke-width="0.2"/>
<path d="M5.64509 2.93348C5.57237 2.12925 4.99061 1.54436 4.19069 1.47124C4.99061 1.39813 5.57237 0.813236 5.64509 0.00900549C5.71781 0.813236 6.29958 1.39813 7.0995 1.47124C6.29958 1.54436 5.64509 2.12925 5.64509 2.93348Z" stroke="var(--stroke-0, #858B9C)" stroke-width="0.2"/>
<path d="M2.15441 4.39577C2.08169 3.59154 1.49992 3.00665 0.7 2.93354C1.49992 2.86042 2.08169 2.27553 2.15441 1.4713C2.22713 2.27553 2.80889 2.86042 3.60881 2.93354C2.80889 3.00665 2.22713 3.59154 2.15441 4.39577Z" stroke="var(--stroke-0, #858B9C)" stroke-width="0.2"/>
</g>
</g>
</svg>
