<svg preserveAspectRatio="none" width="100%" height="100%" overflow="visible" style="display: block;" viewBox="0 0 14.2 14" fill="none" xmlns="http://www.w3.org/2000/svg">
<g id="briefcase">
<g id="icon">
<path d="M7.1 4.9C7.4866 4.9 7.8 5.2134 7.8 5.6C7.8 5.9866 7.4866 6.3 7.1 6.3C6.7134 6.3 6.4 5.9866 6.4 5.6C6.4 5.2134 6.7134 4.9 7.1 4.9Z" fill="currentColor"/>
<path fill-rule="evenodd" clip-rule="evenodd" d="M5.7 0.7C4.7335 0.7 3.95 1.4835 3.95 2.45V2.8H1.5C0.726801 2.8 0.1 3.4268 0.1 4.2V11.2C0.1 11.9732 0.726802 12.6 1.5 12.6H12.7C13.4732 12.6 14.1 11.9732 14.1 11.2V4.2C14.1 3.4268 13.4732 2.8 12.7 2.8H10.25V2.45C10.25 1.4835 9.4665 0.7 8.5 0.7H5.7ZM9.55 2.8V2.45C9.55 1.8701 9.0799 1.4 8.5 1.4H5.7C5.1201 1.4 4.65 1.8701 4.65 2.45V2.8H9.55ZM12.7 3.5H1.5C1.1134 3.5 0.8 3.8134 0.8 4.2V11.2C0.8 11.5866 1.1134 11.9 1.5 11.9H12.7C13.0866 11.9 13.4 11.5866 13.4 11.2V4.2C13.4 3.8134 13.0866 3.5 12.7 3.5Z" fill="currentColor"/>
<path d="M7.1 4.9C7.4866 4.9 7.8 5.2134 7.8 5.6C7.8 5.9866 7.4866 6.3 7.1 6.3C6.7134 6.3 6.4 5.9866 6.4 5.6C6.4 5.2134 6.7134 4.9 7.1 4.9Z" stroke="var(--stroke-0, #858B9C)" stroke-width="0.2"/>
<path fill-rule="evenodd" clip-rule="evenodd" d="M5.7 0.7C4.7335 0.7 3.95 1.4835 3.95 2.45V2.8H1.5C0.726801 2.8 0.1 3.4268 0.1 4.2V11.2C0.1 11.9732 0.726802 12.6 1.5 12.6H12.7C13.4732 12.6 14.1 11.9732 14.1 11.2V4.2C14.1 3.4268 13.4732 2.8 12.7 2.8H10.25V2.45C10.25 1.4835 9.4665 0.7 8.5 0.7H5.7ZM9.55 2.8V2.45C9.55 1.8701 9.0799 1.4 8.5 1.4H5.7C5.1201 1.4 4.65 1.8701 4.65 2.45V2.8H9.55ZM12.7 3.5H1.5C1.1134 3.5 0.8 3.8134 0.8 4.2V11.2C0.8 11.5866 1.1134 11.9 1.5 11.9H12.7C13.0866 11.9 13.4 11.5866 13.4 11.2V4.2C13.4 3.8134 13.0866 3.5 12.7 3.5Z" stroke="var(--stroke-0, #858B9C)" stroke-width="0.2"/>
</g>
</g>
</svg>
