<svg preserveAspectRatio="none" width="100%" height="100%" overflow="visible" style="display: block;" viewBox="0 0 16 16" fill="none" xmlns="http://www.w3.org/2000/svg">
<path d="M7.51364 11.448C7.57161 11.448 7.57161 11.448 7.51364 11.448H12.3882C13.3458 11.448 14.1292 10.6646 14.1292 9.70704V4.48462C14.1292 3.52705 13.3458 2.74365 12.3882 2.74365H3.6836C2.72603 2.74365 1.94288 3.52705 1.94288 4.48462V9.70729C1.94288 10.6649 2.72628 11.4483 3.6836 11.4483H4.11891C4.38004 11.4483 4.55421 11.6224 4.55421 11.8836C4.55421 12.1447 4.38004 12.3189 4.11891 12.3189H3.6836C2.20401 12.3189 1.07227 11.1874 1.07227 9.70755V4.48462C1.07227 3.00504 2.20401 1.87329 3.6836 1.87329H12.3882C13.8681 1.87329 14.9995 3.00504 14.9995 4.48462V9.70729C14.9995 11.1871 13.8681 12.3186 12.3882 12.3186H7.68781L4.29308 13.9724C4.11891 14.0593 3.85777 13.9724 3.68385 13.7982C3.59689 13.6243 3.68385 13.3629 3.85803 13.189L7.33998 11.448H7.5139H7.51364Z" fill="currentColor"/>
<path d="M5.5 5.5V6.5" stroke="currentColor" stroke-linecap="round"/>
<path d="M10.5 5.5V6.5" stroke="currentColor" stroke-linecap="round"/>
</svg>
