<svg preserveAspectRatio="none" width="100%" height="100%" overflow="visible" style="display: block;" viewBox="0 0 14 14" fill="none" xmlns="http://www.w3.org/2000/svg">
<path fill-rule="evenodd" clip-rule="evenodd" d="M3.4617 2.6443C3.01066 2.6443 2.64503 3.00993 2.64503 3.46096V10.5387C2.64503 10.9898 3.01066 11.3554 3.4617 11.3554H10.5395C10.9905 11.3554 11.3561 10.9898 11.3561 10.5387V7.5443H11.9006V10.5387C11.9006 11.2905 11.2912 11.8999 10.5395 11.8999H3.4617C2.70998 11.8999 2.10059 11.2905 2.10059 10.5387V3.46096C2.10059 2.70924 2.70998 2.09985 3.4617 2.09985H6.45614V2.6443H3.4617Z" fill="currentColor" stroke="currentColor" stroke-width="0.14"/>
<path fill-rule="evenodd" clip-rule="evenodd" d="M10.9902 3.85993L10.1408 3.01055L6.55056 6.60079L6.16532 7.83541L7.39994 7.45017L10.9902 3.85993ZM11.2995 3.55057L10.4502 2.70119L11.3045 1.84687L12.1539 2.69625L11.2995 3.55057ZM12.479 2.98987C12.6411 2.8277 12.6411 2.56479 12.479 2.40263L11.5981 1.52177C11.4359 1.35961 11.173 1.35961 11.0109 1.52177L6.19411 6.33853C6.15976 6.37287 6.13855 6.41817 6.13415 6.46654L5.60146 8.17371C5.58972 8.30283 5.6979 8.41101 5.82702 8.39927L7.53419 7.86658C7.58256 7.86219 7.62786 7.84097 7.66221 7.80663L12.479 2.98987Z" fill="currentColor" stroke="currentColor" stroke-width="0.14"/>
</svg>
