<svg width="16" height="16" viewBox="0 0 16 16" fill="none" xmlns="http://www.w3.org/2000/svg">
<path fill-rule="evenodd" clip-rule="evenodd" d="M16 8C16 3.5888 12.4112 0 8 0C3.5888 0 0 3.5888 0 8C0 12.4112 3.5888 16 8 16C12.4112 16 16 12.4112 16 8ZM4.74969 5.5C4.74969 5.30102 4.82881 5.11021 4.9696 4.9696C5.11021 4.82881 5.30102 4.74969 5.5 4.74969C5.69898 4.74969 5.88979 4.82881 6.0304 4.9696L8 6.9392L9.9696 4.9696C10.1591 4.78011 10.4353 4.7061 10.6941 4.77546C10.953 4.84482 11.1552 5.04701 11.2245 5.30586C11.2939 5.56471 11.2199 5.84091 11.0304 6.0304L9.0608 8L11.0304 9.9696C11.1712 10.1102 11.2503 10.301 11.2503 10.5C11.2503 10.699 11.1712 10.8898 11.0304 11.0304C10.8902 11.172 10.6992 11.2516 10.5 11.2516C10.3008 11.2516 10.1098 11.172 9.9696 11.0304L8 9.0608L6.0304 11.0304C5.84091 11.2199 5.56471 11.2939 5.30586 11.2245C5.04701 11.1552 4.84482 10.953 4.77546 10.6941C4.7061 10.4353 4.78011 10.1591 4.9696 9.9696L6.9392 8L4.9696 6.0304C4.82881 5.88979 4.74969 5.69898 4.74969 5.5Z" fill="currentColor"/>
</svg>
