<svg width="18" height="18" viewBox="0 0 18 18" fill="none" xmlns="http://www.w3.org/2000/svg">
  <path fill-rule="evenodd" clip-rule="evenodd" d="M9.38354 10.5498C8.23848 10.5498 7.30968 9.62154 7.30968 8.47596C7.30968 7.89553 7.5473 7.37228 7.93155 6.99532C8.07422 6.85536 8.07642 6.62624 7.93646 6.48358C7.7965 6.34091 7.56738 6.33871 7.42472 6.47867C6.90758 6.98599 6.58594 7.69311 6.58594 8.47596C6.58594 10.0214 7.8389 11.2736 9.38354 11.2736C10.1657 11.2736 10.8735 10.952 11.3808 10.4348C11.5208 10.2921 11.5186 10.063 11.3759 9.92304C11.2333 9.78308 11.0041 9.78528 10.8642 9.92794C10.4873 10.3122 9.96336 10.5498 9.38354 10.5498Z" fill="currentColor"/>
  <path fill-rule="evenodd" clip-rule="evenodd" d="M3.64585 11.4719C4.8089 12.9002 6.65555 14.3672 9.32086 14.3672C11.1285 14.3672 12.5674 13.6906 13.6709 12.8077C13.8253 12.6842 13.8496 12.4599 13.7252 12.3066C13.6008 12.1534 13.3747 12.1293 13.2204 12.2528C12.2181 13.0546 10.9337 13.6545 9.32086 13.6545C6.95273 13.6545 5.29111 12.3586 4.20426 11.0239C3.66163 10.3575 3.26949 9.68936 3.01306 9.18723C2.88506 8.9366 2.79146 8.72847 2.73028 8.58416C2.71506 8.54825 2.70186 8.51632 2.69064 8.48869C2.71803 8.42469 2.75657 8.33752 2.80646 8.23127C2.92104 7.9873 3.09508 7.64368 3.33113 7.24955C3.80478 6.4587 4.52025 5.47764 5.49445 4.68706C5.64796 4.56248 5.67067 4.33796 5.54517 4.18558C5.41967 4.03319 5.19349 4.01065 5.03998 4.13523C3.97887 4.99633 3.2129 6.05218 2.71393 6.88531C2.46367 7.30316 2.27862 7.66831 2.15567 7.9301C2.09416 8.06108 2.04808 8.16642 2.01707 8.23984C2.00156 8.27655 1.98981 8.3053 1.98178 8.3253C1.97776 8.33531 1.97467 8.34312 1.9725 8.34866L1.96993 8.35523L1.96917 8.35721L1.96891 8.35787L1.96882 8.35812C1.96878 8.35822 1.96874 8.35831 2.30433 8.48495C1.96613 8.60455 1.96619 8.6047 1.96625 8.60487L1.96641 8.60533L1.96688 8.60661L1.96836 8.61068C1.9696 8.61406 1.97133 8.61875 1.97355 8.62471C1.97801 8.63664 1.98446 8.65367 1.99294 8.67545C2.0099 8.71902 2.03498 8.78165 2.06846 8.86063C2.1354 9.01851 2.23605 9.2421 2.37261 9.50952C2.64531 10.0435 3.06353 10.7568 3.64585 11.4719ZM2.30433 8.48495L1.96613 8.60455C1.9375 8.52477 1.93843 8.43747 1.96874 8.35831L2.30433 8.48495Z" fill="currentColor"/>
  <path fill-rule="evenodd" clip-rule="evenodd" d="M14.1328 11.6993C14.2793 11.8291 14.5044 11.8168 14.6356 11.6718C15.3243 10.9109 15.8184 10.1185 16.1402 9.51801C16.3014 9.21719 16.4201 8.96299 16.499 8.78283C16.5385 8.69271 16.568 8.62099 16.5879 8.57109C16.5979 8.54613 16.6055 8.52662 16.6107 8.51298C16.6133 8.50616 16.6153 8.5008 16.6168 8.49696L16.6185 8.49236L16.619 8.49092L16.6192 8.49042L16.6193 8.49022C16.6193 8.49014 16.6193 8.49007 16.2846 8.37005C16.6174 8.24499 16.6174 8.24484 16.6173 8.24468L16.6167 8.243L16.6151 8.23901C16.6138 8.23569 16.612 8.23106 16.6096 8.22516C16.6049 8.21336 16.5981 8.19648 16.5892 8.17486C16.5713 8.13162 16.5449 8.06939 16.5098 7.99087C16.4397 7.83388 16.3346 7.61144 16.1933 7.34534C15.9112 6.81397 15.4823 6.10406 14.8952 5.39239C13.7246 3.97329 11.8897 2.50787 9.30982 2.50787C8.14623 2.50787 7.1303 2.80741 6.25869 3.26793C6.08524 3.35958 6.01973 3.57297 6.11237 3.74455C6.20502 3.91614 6.42073 3.98094 6.59418 3.88929C7.37337 3.4776 8.27494 3.21231 9.30982 3.21231C11.589 3.21231 13.2415 4.50187 14.3435 5.83775C14.8927 6.50357 15.2965 7.17115 15.5629 7.67289C15.6958 7.92335 15.794 8.13138 15.8585 8.27572C15.8749 8.31226 15.889 8.3447 15.901 8.37268C15.8861 8.40889 15.8676 8.45253 15.8456 8.50285C15.7731 8.66838 15.6623 8.90569 15.511 9.1881C15.2077 9.75408 14.7447 10.4951 14.105 11.202C13.9739 11.3469 13.9863 11.5696 14.1328 11.6993ZM16.2846 8.37005L16.6174 8.24499C16.6477 8.32382 16.6484 8.41078 16.6193 8.49007L16.2846 8.37005Z" fill="currentColor"/>
  <path fill-rule="evenodd" clip-rule="evenodd" d="M11.5709 9.20586C11.756 9.23942 11.9314 9.10501 11.9625 8.90564C11.9864 8.75278 12 8.59464 12 8.43157C12 6.86907 10.8238 5.60162 9.37219 5.60162C9.22077 5.60162 9.07393 5.61625 8.93198 5.64198C8.74686 5.67553 8.62205 5.86435 8.65321 6.06371C8.68437 6.26308 8.8597 6.39749 9.04482 6.36393C9.15255 6.3444 9.26157 6.33374 9.37219 6.33374C10.4482 6.33374 11.3202 7.27328 11.3202 8.43157C11.3202 8.5507 11.3103 8.6681 11.2921 8.78413C11.261 8.98349 11.3858 9.17231 11.5709 9.20586Z" fill="currentColor"/>
  <path fill-rule="evenodd" clip-rule="evenodd" d="M6.58594 8.47596C6.58594 10.0213 7.83818 11.2736 9.38354 11.2736C10.1664 11.2736 10.8735 10.9519 11.3808 10.4348C11.5208 10.2921 11.5186 10.063 11.3759 9.92304C11.2333 9.78308 11.0041 9.78528 10.8642 9.92794C10.4872 10.3122 9.96397 10.5498 9.38354 10.5498C8.23789 10.5498 7.30968 9.62161 7.30968 8.47596C7.30968 7.89613 7.54734 7.37224 7.93155 6.99532C8.07422 6.85536 8.07642 6.62624 7.93646 6.48358C7.7965 6.34091 7.56738 6.33871 7.42472 6.47867C6.90754 6.98603 6.58594 7.69383 6.58594 8.47596Z" fill="currentColor"/>
  <path fill-rule="evenodd" clip-rule="evenodd" d="M15.5062 14.5218C15.6438 14.3842 15.6438 14.161 15.5062 14.0234L3.83599 2.35322C3.69836 2.21559 3.47522 2.21559 3.3376 2.35322C3.19997 2.49085 3.19997 2.71399 3.3376 2.85161L15.0078 14.5218C15.1454 14.6594 15.3685 14.6594 15.5062 14.5218Z" fill="currentColor"/>
</svg>
