<svg width="18" height="18" viewBox="0 0 18 18" fill="none" xmlns="http://www.w3.org/2000/svg">
  <path fill-rule="evenodd" clip-rule="evenodd" d="M9.38354 10.5497C8.23848 10.5497 7.30968 9.62142 7.30968 8.47583C7.30968 7.8954 7.5473 7.37216 7.93155 6.99519C8.07422 6.85523 8.07642 6.62612 7.93646 6.48345C7.7965 6.34079 7.56738 6.33859 7.42472 6.47855C6.90758 6.98587 6.58594 7.69299 6.58594 8.47583C6.58594 10.0213 7.8389 11.2734 9.38354 11.2734C10.1657 11.2734 10.8735 10.9518 11.3808 10.4347C11.5208 10.292 11.5186 10.0629 11.3759 9.92292C11.2333 9.78296 11.0041 9.78515 10.8642 9.92782C10.4873 10.312 9.96336 10.5497 9.38354 10.5497Z" fill="currentColor"/>
  <path fill-rule="evenodd" clip-rule="evenodd" d="M3.64585 11.4719C4.8089 12.9002 6.65555 14.3672 9.32086 14.3672C11.1285 14.3672 12.5674 13.6906 13.6709 12.8077C13.8253 12.6842 13.8496 12.4598 13.7252 12.3065C13.6008 12.1533 13.3747 12.1292 13.2204 12.2527C12.2181 13.0545 10.9337 13.6544 9.32086 13.6544C6.95273 13.6544 5.29111 12.3585 4.20426 11.0238C3.66163 10.3574 3.26949 9.6893 3.01306 9.18717C2.88506 8.93653 2.79146 8.72841 2.73028 8.5841C2.71506 8.54819 2.70186 8.51626 2.69064 8.48863C2.71803 8.42462 2.75657 8.33746 2.80646 8.23121C2.92104 7.98724 3.09508 7.64362 3.33113 7.24949C3.80478 6.45863 4.52025 5.47758 5.49445 4.687C5.64796 4.56242 5.67067 4.3379 5.54517 4.18552C5.41967 4.03313 5.19349 4.01059 5.03998 4.13517C3.97887 4.99627 3.2129 6.05212 2.71393 6.88525C2.46367 7.3031 2.27862 7.66825 2.15567 7.93004C2.09416 8.06102 2.04808 8.16636 2.01707 8.23978C2.00156 8.27649 1.98981 8.30524 1.98178 8.32524C1.97776 8.33525 1.97467 8.34306 1.9725 8.34859L1.96993 8.35517L1.96917 8.35715L1.96891 8.35781L1.96882 8.35806C1.96878 8.35816 1.96874 8.35825 2.30433 8.48489C1.96613 8.60449 1.96619 8.60464 1.96625 8.60481L1.96641 8.60527L1.96688 8.60655L1.96836 8.61062C1.9696 8.614 1.97133 8.61869 1.97355 8.62465C1.97801 8.63658 1.98446 8.65361 1.99294 8.67539C2.0099 8.71896 2.03498 8.78159 2.06846 8.86056C2.1354 9.01845 2.23605 9.24204 2.37261 9.50946C2.64531 10.0434 3.06353 10.7568 3.64585 11.4719ZM2.30433 8.48489L1.96613 8.60449C1.9375 8.52471 1.93843 8.43741 1.96874 8.35825L2.30433 8.48489Z" fill="currentColor"/>
  <path fill-rule="evenodd" clip-rule="evenodd" d="M14.1328 11.6993C14.2793 11.829 14.5044 11.8167 14.6356 11.6718C15.3243 10.9108 15.8184 10.1185 16.1402 9.51795C16.3014 9.21713 16.4201 8.96293 16.499 8.78277C16.5385 8.69265 16.568 8.62093 16.5879 8.57102C16.5979 8.54607 16.6055 8.52656 16.6107 8.51292C16.6133 8.50609 16.6153 8.50074 16.6168 8.4969L16.6185 8.4923L16.619 8.49086L16.6192 8.49036L16.6193 8.49016C16.6193 8.49008 16.6193 8.49 16.2846 8.36999C16.6174 8.24493 16.6174 8.24478 16.6173 8.24462L16.6167 8.24293L16.6151 8.23895C16.6138 8.23563 16.612 8.231 16.6096 8.2251C16.6049 8.2133 16.5981 8.19642 16.5892 8.1748C16.5713 8.13156 16.5449 8.06933 16.5098 7.9908C16.4397 7.83382 16.3346 7.61138 16.1933 7.34528C15.9112 6.81391 15.4823 6.104 14.8952 5.39233C13.7246 3.97323 11.8897 2.50781 9.30982 2.50781C8.14623 2.50781 7.1303 2.80735 6.25869 3.26787C6.08524 3.35952 6.01973 3.57291 6.11237 3.74449C6.20502 3.91607 6.42073 3.98088 6.59418 3.88923C7.37337 3.47754 8.27494 3.21225 9.30982 3.21225C11.589 3.21225 13.2415 4.50181 14.3435 5.83769C14.8927 6.50351 15.2965 7.17109 15.5629 7.67283C15.6958 7.92329 15.794 8.13132 15.8585 8.27566C15.8749 8.3122 15.889 8.34464 15.901 8.37262C15.8861 8.40883 15.8676 8.45247 15.8456 8.50279C15.7731 8.66831 15.6623 8.90562 15.511 9.18804C15.2077 9.75402 14.7447 10.4951 14.105 11.2019C13.9739 11.3468 13.9863 11.5695 14.1328 11.6993ZM16.2846 8.36999L16.6174 8.24493C16.6477 8.32376 16.6484 8.41072 16.6193 8.49L16.2846 8.36999Z" fill="currentColor"/>
  <path fill-rule="evenodd" clip-rule="evenodd" d="M11.5709 9.2058C11.756 9.23936 11.9314 9.10495 11.9625 8.90558C11.9864 8.75272 12 8.59458 12 8.43151C12 6.86901 10.8238 5.60156 9.37219 5.60156C9.22077 5.60156 9.07393 5.61618 8.93198 5.64191C8.74686 5.67547 8.62205 5.86429 8.65321 6.06365C8.68437 6.26302 8.8597 6.39743 9.04482 6.36387C9.15255 6.34434 9.26157 6.33368 9.37219 6.33368C10.4482 6.33368 11.3202 7.27321 11.3202 8.43151C11.3202 8.55064 11.3103 8.66804 11.2921 8.78406C11.261 8.98343 11.3858 9.17225 11.5709 9.2058Z" fill="currentColor"/>
  <path fill-rule="evenodd" clip-rule="evenodd" d="M6.58594 8.47584C6.58594 10.0212 7.83818 11.2734 9.38354 11.2734C10.1664 11.2734 10.8735 10.9518 11.3808 10.4347C11.5208 10.292 11.5186 10.0629 11.3759 9.92292C11.2333 9.78296 11.0041 9.78515 10.8642 9.92782C10.4872 10.3121 9.96397 10.5497 9.38354 10.5497C8.23789 10.5497 7.30968 9.62149 7.30968 8.47584C7.30968 7.89601 7.54734 7.37212 7.93155 6.99519C8.07422 6.85523 8.07642 6.62612 7.93646 6.48345C7.7965 6.34079 7.56738 6.33859 7.42472 6.47855C6.90754 6.98591 6.58594 7.6937 6.58594 8.47584Z" fill="currentColor"/>
</svg>
