<svg width="16" height="16" viewBox="0 0 16 16" fill="none" xmlns="http://www.w3.org/2000/svg">
<path fill-rule="evenodd" clip-rule="evenodd" d="M8 0.8C7.81569 0.8 7.633 0.806925 7.45218 0.820529C3.86334 1.09053 1.00852 3.99143 0.810923 7.6C0.803673 7.73241 0.8 7.86578 0.8 8C0.8 8.13422 0.803673 8.26759 0.810923 8.4C1.00852 12.0086 3.86334 14.9095 7.45218 15.1795C7.633 15.1931 7.81569 15.2 8 15.2C8.18431 15.2 8.367 15.1931 8.54782 15.1795C12.1367 14.9095 14.9915 12.0086 15.1891 8.4C15.1963 8.26759 15.2 8.13422 15.2 8C15.2 7.86578 15.1963 7.73241 15.1891 7.6C14.9915 3.99143 12.1367 1.09053 8.54782 0.820529C8.367 0.806925 8.18431 0.8 8 0.8ZM8.13682 1.60144C8.33806 1.88126 8.58967 2.27377 8.84223 2.77889C9.38436 3.86314 9.93242 5.46915 9.99423 7.6H6.00577C6.06758 5.46915 6.61564 3.86314 7.15777 2.77889C7.41033 2.27377 7.66194 1.88126 7.86318 1.60144C7.90867 1.60048 7.95428 1.6 8 1.6C8.04572 1.6 8.09133 1.60048 8.13682 1.60144ZM6.00577 8.4H9.99423C9.93242 10.5309 9.38436 12.1369 8.84223 13.2211C8.58967 13.7262 8.33806 14.1187 8.13682 14.3986C8.09133 14.3995 8.04572 14.4 8 14.4C7.95428 14.4 7.90867 14.3995 7.86318 14.3986C7.66194 14.1187 7.41033 13.7262 7.15777 13.2211C6.61564 12.1369 6.06758 10.5309 6.00577 8.4ZM5.20545 7.6C5.26765 5.329 5.85195 3.60167 6.44223 2.42111C6.57552 2.15453 6.70903 1.91598 6.83679 1.70545C3.9851 2.22906 1.79465 4.64286 1.6123 7.6H5.20545ZM1.6123 8.4H5.20545C5.26765 10.671 5.85195 12.3983 6.44223 13.5789C6.57552 13.8455 6.70903 14.084 6.83679 14.2945C3.9851 13.7709 1.79465 11.3571 1.6123 8.4ZM9.16321 14.2945C12.0149 13.7709 14.2053 11.3571 14.3877 8.4H10.7945C10.7323 10.671 10.148 12.3983 9.55777 13.5789C9.42448 13.8455 9.29097 14.084 9.16321 14.2945ZM10.7945 7.6C10.7323 5.329 10.148 3.60167 9.55777 2.42111C9.42448 2.15453 9.29097 1.91598 9.16321 1.70545C12.0149 2.22906 14.2053 4.64286 14.3877 7.6H10.7945Z" fill="currentColor" stroke="currentColor" stroke-width="0.3"/>
</svg>
