<svg preserveAspectRatio="none" width="100%" height="100%" overflow="visible" style="display: block;" viewBox="0 0 14 14" fill="none" xmlns="http://www.w3.org/2000/svg">
<g id="calculator">
<g id="icon">
<path fill-rule="evenodd" clip-rule="evenodd" d="M1.4 1.75C1.4 1.1701 1.8701 0.7 2.45 0.7H11.55C12.1299 0.7 12.6 1.1701 12.6 1.75V12.25C12.6 12.8299 12.1299 13.3 11.55 13.3H2.45C1.8701 13.3 1.4 12.8299 1.4 12.25V1.75ZM2.45 1.4C2.2567 1.4 2.1 1.5567 2.1 1.75V4.9H11.9V1.75C11.9 1.5567 11.7433 1.4 11.55 1.4H2.45ZM11.9 5.6H2.1V12.25C2.1 12.4433 2.2567 12.6 2.45 12.6H11.55C11.7433 12.6 11.9 12.4433 11.9 12.25V5.6Z" fill="currentColor"/>
<path d="M4.9 7H3.5V8.4H4.9V7Z" fill="currentColor"/>
<path d="M7.7 7H6.3V8.4H7.7V7Z" fill="currentColor"/>
<path d="M10.5 7H9.1V11.2H10.5V7Z" fill="currentColor"/>
<path d="M4.9 9.8H3.5V11.2H4.9V9.8Z" fill="currentColor"/>
<path d="M7.7 9.8H6.3V11.2H7.7V9.8Z" fill="currentColor"/>
</g>
</g>
</svg>
