<svg width="14" height="14" viewBox="0 0 14 14" fill="none" xmlns="http://www.w3.org/2000/svg">
  <path d="M2.1 10.85C2.1 11.2366 1.7866 11.55 1.4 11.55C1.0134 11.55 0.7 11.2366 0.7 10.85C0.7 10.4634 1.0134 10.15 1.4 10.15C1.7866 10.15 2.1 10.4634 2.1 10.85Z" fill="currentColor" stroke="currentColor" stroke-width="0.2"/>
  <path d="M2.1 3.15C2.1 3.5366 1.7866 3.85 1.4 3.85C1.0134 3.85 0.7 3.5366 0.7 3.15C0.7 2.7634 1.0134 2.45 1.4 2.45C1.7866 2.45 2.1 2.7634 2.1 3.15Z" fill="currentColor" stroke="currentColor" stroke-width="0.2"/>
  <path fill-rule="evenodd" clip-rule="evenodd" d="M13.3 3.5H5.6V2.8H13.3V3.5ZM13.3 11.2H5.6V10.5H13.3V11.2Z" fill="currentColor" stroke="currentColor" stroke-width="0.2"/>
</svg>
