<svg preserveAspectRatio="none" width="100%" height="100%" overflow="visible" style="display: block;" viewBox="0 0 24 24" fill="none" xmlns="http://www.w3.org/2000/svg">
<path d="M4.6869 11.9063C4.6869 10.9396 4.87243 10.0007 5.24009 9.11767C5.59358 8.26396 6.10039 7.49862 6.74586 6.8407C7.39158 6.18278 8.14398 5.66645 8.98109 5.30514C9.84798 4.93163 10.7688 4.74194 11.7182 4.74194C12.8542 4.74194 13.982 5.02562 14.981 5.56197C15.9463 6.08049 16.7939 6.83387 17.4318 7.7408C17.609 7.99274 17.5516 8.34306 17.3048 8.52322C17.058 8.70339 16.715 8.64578 16.5388 8.39359C15.9983 7.62703 15.2837 6.99084 14.4688 6.55385C13.6146 6.09489 12.6894 5.86249 11.7182 5.86249C10.1336 5.86249 8.6437 6.49136 7.52365 7.63338C6.40311 8.77467 5.78571 10.2922 5.78571 11.9063C5.78571 13.5205 6.40311 15.038 7.52365 16.18C8.6437 17.3218 10.1336 17.9502 11.7182 17.9502C12.6884 17.9502 13.6153 17.7183 14.4688 17.2588C15.283 16.8216 15.9983 16.1849 16.5378 15.4183C16.7138 15.1669 17.057 15.1083 17.3036 15.289C17.5504 15.4696 17.6083 15.8192 17.4306 16.0706C16.7927 16.9783 15.945 17.7327 14.9798 18.2507C13.9808 18.7875 12.8529 19.0715 11.717 19.0715C10.7676 19.0715 9.84676 18.8818 8.97938 18.5078C8.14227 18.1469 7.38987 17.6301 6.7444 16.9722C6.09868 16.3143 5.59261 15.5487 5.23716 14.695C4.8717 13.8113 4.6869 12.8731 4.6869 11.9061V11.9063ZM12.3168 12.0748C12.3168 11.7652 12.5619 11.5145 12.8661 11.5145H19.3789C19.6819 11.5145 19.9287 11.7655 19.9287 12.0748C19.9287 12.3841 19.6819 12.6358 19.3789 12.6358H12.8664C12.5622 12.6358 12.3171 12.3843 12.3171 12.0748H12.3168Z" fill="currentColor" stroke="currentColor" stroke-width="0.342857" stroke-linejoin="round"/>
</svg>
