<svg preserveAspectRatio="none" width="100%" height="100%" overflow="visible" style="display: block;" viewBox="0 0 16 16" fill="none" xmlns="http://www.w3.org/2000/svg">
<path fill-rule="evenodd" clip-rule="evenodd" d="M2.88039 9.27997C3.58439 9.27997 4.16039 8.70397 4.16039 7.99997C4.16039 7.29597 3.58439 6.71997 2.88039 6.71997C2.17639 6.71997 1.60039 7.29597 1.60039 7.99997C1.60039 8.70397 2.17639 9.27997 2.88039 9.27997ZM8.00039 9.27997C8.70439 9.27997 9.28039 8.70397 9.28039 7.99997C9.28039 7.29597 8.70439 6.71997 8.00039 6.71997C7.29639 6.71997 6.72039 7.29597 6.72039 7.99997C6.72039 8.70397 7.29639 9.27997 8.00039 9.27997ZM13.1204 9.27997C13.8244 9.27997 14.4004 8.70397 14.4004 7.99997C14.4004 7.29597 13.8244 6.71997 13.1204 6.71997C12.4164 6.71997 11.8404 7.29597 11.8404 7.99997C11.8404 8.70397 12.4164 9.27997 13.1204 9.27997Z" fill="currentColor"/>
</svg>
