<svg preserveAspectRatio="none" width="100%" height="100%" overflow="visible" style="display: block;" viewBox="0 0 16 16" fill="none" xmlns="http://www.w3.org/2000/svg">
<g id="building">
<path id="icon" d="M14.9502 3.32031V14.9502H0.25V10.9727L3.28809 9.83398L3.4502 9.77344V3.36816L11.1572 0.286133L14.9502 3.32031ZM10.707 0.789062L3.90723 3.50977L3.75 3.57227V9.98047L0.711914 11.1201L0.549805 11.1807V14.6504H11.0498V0.652344L10.707 0.789062ZM6.5498 11.8223L5.4502 12.207V11.1367L6.5498 10.752V11.8223ZM8.9502 11.0215L7.84961 11.4072V10.3369L8.9502 9.95117V11.0215ZM6.5498 8.62305L5.4502 9.00684V7.93652L6.5498 7.55176V8.62305ZM8.9502 7.82129L7.84961 8.20703V7.1377L8.9502 6.75195V7.82129ZM6.5498 5.42285L5.4502 5.80664V4.73633L6.5498 4.35254V5.42285ZM8.9502 4.62207L7.84961 5.00781V3.9375L8.9502 3.55176V4.62207ZM14.6504 3.46387L14.5566 3.38965L11.7559 1.14941L11.3496 0.824219V14.6504H14.6504V3.46387Z" fill="currentColor" stroke="currentColor" stroke-width="0.5"/>
</g>
</svg>
