<svg width="32" height="30" viewBox="0 0 32 30" fill="none" xmlns="http://www.w3.org/2000/svg">
<circle cx="19.4302" cy="12.0859" r="8.0698" fill="url(#paint0_linear_227_4623)" stroke="url(#paint1_linear_227_4623)" stroke-width="0.212363"/>
<foreignObject x="-0.901073" y="3.46758" width="31.9266" height="24.3661"><div xmlns="http://www.w3.org/1999/xhtml" style="backdrop-filter:blur(0.98px);clip-path:url(#bgblur_0_227_4623_clip_path);height:100%;width:100%"></div></foreignObject><g filter="url(#filter0_d_227_4623)" data-figma-bg-blur-radius="1.95869">
<mask id="path-2-inside-1_227_4623" fill="white">
<path fill-rule="evenodd" clip-rule="evenodd" d="M22.2105 25.8749V25.875H7.40283V25.8749C3.89838 25.8744 1.05762 23.0333 1.05762 19.5288C1.05762 16.3763 3.35629 13.7606 6.36898 13.2666C6.68704 8.88345 10.3438 5.42627 14.8081 5.42627C19.2723 5.42627 22.9291 8.8835 23.2471 13.2667C26.2595 13.761 28.5579 16.3765 28.5579 19.5288C28.5579 23.0337 25.7166 25.8749 22.2117 25.8749C22.2113 25.8749 22.2109 25.8749 22.2105 25.8749Z"/>
</mask>
<path fill-rule="evenodd" clip-rule="evenodd" d="M22.2105 25.8749V25.875H7.40283V25.8749C3.89838 25.8744 1.05762 23.0333 1.05762 19.5288C1.05762 16.3763 3.35629 13.7606 6.36898 13.2666C6.68704 8.88345 10.3438 5.42627 14.8081 5.42627C19.2723 5.42627 22.9291 8.8835 23.2471 13.2667C26.2595 13.761 28.5579 16.3765 28.5579 19.5288C28.5579 23.0337 25.7166 25.8749 22.2117 25.8749C22.2113 25.8749 22.2109 25.8749 22.2105 25.8749Z" fill="url(#paint2_linear_227_4623)" style="mix-blend-mode:soft-light"/>
<path fill-rule="evenodd" clip-rule="evenodd" d="M22.2105 25.8749V25.875H7.40283V25.8749C3.89838 25.8744 1.05762 23.0333 1.05762 19.5288C1.05762 16.3763 3.35629 13.7606 6.36898 13.2666C6.68704 8.88345 10.3438 5.42627 14.8081 5.42627C19.2723 5.42627 22.9291 8.8835 23.2471 13.2667C26.2595 13.761 28.5579 16.3765 28.5579 19.5288C28.5579 23.0337 25.7166 25.8749 22.2117 25.8749C22.2113 25.8749 22.2109 25.8749 22.2105 25.8749Z" fill="url(#paint3_linear_227_4623)" fill-opacity="0.3"/>
<path d="M22.2105 25.8749V25.5929H21.9285V25.8749H22.2105ZM22.2105 25.875V26.1571H22.4926V25.875H22.2105ZM7.40283 25.875H7.12078V26.1571H7.40283V25.875ZM7.40283 25.8749H7.68488V25.5929L7.40287 25.5929L7.40283 25.8749ZM6.36898 13.2666L6.41462 13.5449L6.63418 13.5089L6.65029 13.287L6.36898 13.2666ZM23.2471 13.2667L22.9658 13.2871L22.9819 13.509L23.2015 13.545L23.2471 13.2667ZM22.2105 25.8749H21.9285V25.875H22.2105H22.4926V25.8749H22.2105ZM22.2105 25.875V25.593H7.40283V25.875V26.1571H22.2105V25.875ZM7.40283 25.875H7.68488V25.8749H7.40283H7.12078V25.875H7.40283ZM7.40283 25.8749L7.40287 25.5929C4.05417 25.5924 1.33967 22.8776 1.33967 19.5288H1.05762H0.775566C0.775566 23.1891 3.74258 26.1564 7.40279 26.157L7.40283 25.8749ZM1.05762 19.5288H1.33967C1.33967 16.5167 3.53606 14.017 6.41462 13.5449L6.36898 13.2666L6.32333 12.9882C3.17652 13.5043 0.775566 16.2359 0.775566 19.5288H1.05762ZM6.36898 13.2666L6.65029 13.287C6.95773 9.05025 10.4927 5.70832 14.8081 5.70832V5.42627V5.14422C10.1949 5.14422 6.41635 8.71665 6.08766 13.2462L6.36898 13.2666ZM14.8081 5.42627V5.70832C19.1234 5.70832 22.6584 9.0503 22.9658 13.2871L23.2471 13.2667L23.5285 13.2463C23.1998 8.71671 19.4213 5.14422 14.8081 5.14422V5.42627ZM23.2471 13.2667L23.2015 13.545C26.0797 14.0173 28.2758 16.5169 28.2758 19.5288H28.5579H28.8399C28.8399 16.2361 26.4393 13.5047 23.2928 12.9883L23.2471 13.2667ZM28.5579 19.5288H28.2758C28.2758 22.8779 25.5608 25.5929 22.2117 25.5929V25.8749V26.157C25.8724 26.157 28.8399 23.1894 28.8399 19.5288H28.5579ZM22.2117 25.8749V25.5929C22.2117 25.5929 22.2117 25.5929 22.2117 25.5929C22.2117 25.5929 22.2117 25.5929 22.2117 25.5929C22.2117 25.5929 22.2117 25.5929 22.2117 25.5929C22.2117 25.5929 22.2117 25.5929 22.2117 25.5929C22.2117 25.5929 22.2117 25.5929 22.2117 25.5929C22.2117 25.5929 22.2117 25.5929 22.2117 25.5929C22.2117 25.5929 22.2117 25.5929 22.2117 25.5929C22.2117 25.5929 22.2117 25.5929 22.2117 25.5929C22.2117 25.5929 22.2117 25.5929 22.2117 25.5929C22.2117 25.5929 22.2117 25.5929 22.2117 25.5929C22.2117 25.5929 22.2117 25.5929 22.2117 25.5929C22.2117 25.5929 22.2117 25.5929 22.2117 25.5929C22.2117 25.5929 22.2117 25.5929 22.2117 25.5929C22.2117 25.5929 22.2117 25.5929 22.2117 25.5929C22.2117 25.5929 22.2117 25.5929 22.2117 25.5929C22.2117 25.5929 22.2117 25.5929 22.2117 25.5929C22.2117 25.5929 22.2117 25.5929 22.2117 25.5929C22.2117 25.5929 22.2117 25.5929 22.2117 25.5929C22.2117 25.5929 22.2117 25.5929 22.2117 25.5929C22.2117 25.5929 22.2117 25.5929 22.2117 25.5929C22.2117 25.5929 22.2117 25.5929 22.2117 25.5929C22.2117 25.5929 22.2117 25.5929 22.2117 25.5929C22.2117 25.5929 22.2117 25.5929 22.2117 25.5929C22.2117 25.5929 22.2117 25.5929 22.2117 25.5929C22.2117 25.5929 22.2117 25.5929 22.2117 25.5929C22.2117 25.5929 22.2117 25.5929 22.2117 25.5929C22.2117 25.5929 22.2117 25.5929 22.2117 25.5929C22.2117 25.5929 22.2117 25.5929 22.2117 25.5929C22.2117 25.5929 22.2116 25.5929 22.2116 25.5929C22.2116 25.5929 22.2116 25.5929 22.2116 25.5929C22.2116 25.5929 22.2116 25.5929 22.2116 25.5929C22.2116 25.5929 22.2116 25.5929 22.2116 25.5929C22.2116 25.5929 22.2116 25.5929 22.2116 25.5929C22.2116 25.5929 22.2116 25.5929 22.2116 25.5929C22.2116 25.5929 22.2116 25.5929 22.2116 25.5929C22.2116 25.5929 22.2116 25.5929 22.2116 25.5929C22.2116 25.5929 22.2116 25.5929 22.2116 25.5929C22.2116 25.5929 22.2116 25.5929 22.2116 25.5929C22.2116 25.5929 22.2116 25.5929 22.2116 25.5929C22.2116 25.5929 22.2116 25.5929 22.2116 25.5929C22.2116 25.5929 22.2116 25.5929 22.2116 25.5929C22.2116 25.5929 22.2116 25.5929 22.2116 25.5929C22.2116 25.5929 22.2116 25.5929 22.2116 25.5929C22.2116 25.5929 22.2116 25.5929 22.2116 25.5929C22.2116 25.5929 22.2116 25.5929 22.2116 25.5929C22.2116 25.5929 22.2116 25.5929 22.2116 25.5929C22.2116 25.5929 22.2116 25.5929 22.2116 25.5929C22.2116 25.5929 22.2116 25.5929 22.2116 25.5929C22.2116 25.5929 22.2116 25.5929 22.2116 25.5929C22.2116 25.5929 22.2116 25.5929 22.2116 25.5929C22.2116 25.5929 22.2116 25.5929 22.2116 25.5929C22.2116 25.5929 22.2116 25.5929 22.2116 25.5929C22.2116 25.5929 22.2116 25.5929 22.2116 25.5929C22.2116 25.5929 22.2116 25.5929 22.2116 25.5929C22.2116 25.5929 22.2116 25.5929 22.2116 25.5929C22.2116 25.5929 22.2116 25.5929 22.2116 25.5929C22.2116 25.5929 22.2116 25.5929 22.2116 25.5929C22.2116 25.5929 22.2116 25.5929 22.2116 25.5929C22.2116 25.5929 22.2116 25.5929 22.2116 25.5929C22.2116 25.5929 22.2116 25.5929 22.2116 25.5929C22.2116 25.5929 22.2116 25.5929 22.2116 25.5929C22.2116 25.5929 22.2116 25.5929 22.2116 25.5929C22.2116 25.5929 22.2116 25.5929 22.2116 25.5929C22.2116 25.5929 22.2116 25.5929 22.2116 25.5929C22.2116 25.5929 22.2116 25.5929 22.2116 25.5929C22.2116 25.5929 22.2116 25.5929 22.2116 25.5929C22.2116 25.5929 22.2116 25.5929 22.2116 25.5929C22.2116 25.5929 22.2116 25.5929 22.2116 25.5929C22.2116 25.5929 22.2116 25.5929 22.2116 25.5929C22.2116 25.5929 22.2116 25.5929 22.2116 25.5929C22.2116 25.5929 22.2116 25.5929 22.2116 25.5929C22.2115 25.5929 22.2115 25.5929 22.2115 25.5929C22.2115 25.5929 22.2115 25.5929 22.2115 25.5929C22.2115 25.5929 22.2115 25.5929 22.2115 25.5929C22.2115 25.5929 22.2115 25.5929 22.2115 25.5929C22.2115 25.5929 22.2115 25.5929 22.2115 25.5929C22.2115 25.5929 22.2115 25.5929 22.2115 25.5929C22.2115 25.5929 22.2115 25.5929 22.2115 25.5929C22.2115 25.5929 22.2115 25.5929 22.2115 25.5929C22.2115 25.5929 22.2115 25.5929 22.2115 25.5929C22.2115 25.5929 22.2115 25.5929 22.2115 25.5929C22.2115 25.5929 22.2115 25.5929 22.2115 25.5929C22.2115 25.5929 22.2115 25.5929 22.2115 25.5929C22.2115 25.5929 22.2115 25.5929 22.2115 25.5929C22.2115 25.5929 22.2115 25.5929 22.2115 25.5929C22.2115 25.5929 22.2115 25.5929 22.2115 25.5929C22.2115 25.5929 22.2115 25.5929 22.2115 25.5929C22.2115 25.5929 22.2115 25.5929 22.2115 25.5929C22.2115 25.5929 22.2115 25.5929 22.2115 25.5929C22.2115 25.5929 22.2115 25.5929 22.2115 25.5929C22.2115 25.5929 22.2115 25.5929 22.2115 25.5929C22.2115 25.5929 22.2115 25.5929 22.2115 25.5929C22.2115 25.5929 22.2115 25.5929 22.2115 25.5929C22.2115 25.5929 22.2115 25.5929 22.2115 25.5929C22.2115 25.5929 22.2115 25.5929 22.2115 25.5929C22.2115 25.5929 22.2115 25.5929 22.2115 25.5929C22.2115 25.5929 22.2115 25.5929 22.2115 25.5929C22.2115 25.5929 22.2115 25.5929 22.2115 25.5929C22.2115 25.5929 22.2115 25.5929 22.2115 25.5929C22.2115 25.5929 22.2115 25.5929 22.2115 25.5929C22.2115 25.5929 22.2115 25.5929 22.2115 25.5929C22.2115 25.5929 22.2115 25.5929 22.2115 25.5929C22.2115 25.5929 22.2115 25.5929 22.2115 25.5929C22.2115 25.5929 22.2115 25.5929 22.2115 25.5929C22.2115 25.5929 22.2115 25.5929 22.2115 25.5929C22.2115 25.5929 22.2115 25.5929 22.2115 25.5929C22.2115 25.5929 22.2115 25.5929 22.2115 25.5929C22.2115 25.5929 22.2115 25.5929 22.2115 25.5929C22.2115 25.5929 22.2115 25.5929 22.2115 25.5929C22.2115 25.5929 22.2115 25.5929 22.2115 25.5929C22.2115 25.5929 22.2115 25.5929 22.2115 25.5929C22.2115 25.5929 22.2115 25.5929 22.2115 25.5929C22.2115 25.5929 22.2115 25.5929 22.2115 25.5929C22.2115 25.5929 22.2115 25.5929 22.2115 25.5929C22.2115 25.5929 22.2115 25.5929 22.2114 25.5929C22.2114 25.5929 22.2114 25.5929 22.2114 25.5929C22.2114 25.5929 22.2114 25.5929 22.2114 25.5929C22.2114 25.5929 22.2114 25.5929 22.2114 25.5929C22.2114 25.5929 22.2114 25.5929 22.2114 25.5929C22.2114 25.5929 22.2114 25.5929 22.2114 25.5929C22.2114 25.5929 22.2114 25.5929 22.2114 25.5929C22.2114 25.5929 22.2114 25.5929 22.2114 25.5929C22.2114 25.5929 22.2114 25.5929 22.2114 25.5929C22.2114 25.5929 22.2114 25.5929 22.2114 25.5929C22.2114 25.5929 22.2114 25.5929 22.2114 25.5929C22.2114 25.5929 22.2114 25.5929 22.2114 25.5929C22.2114 25.5929 22.2114 25.5929 22.2114 25.5929C22.2114 25.5929 22.2114 25.5929 22.2114 25.5929C22.2114 25.5929 22.2114 25.5929 22.2114 25.5929C22.2114 25.5929 22.2114 25.5929 22.2114 25.5929C22.2114 25.5929 22.2114 25.5929 22.2114 25.5929C22.2114 25.5929 22.2114 25.5929 22.2114 25.5929C22.2114 25.5929 22.2114 25.5929 22.2114 25.5929C22.2114 25.5929 22.2114 25.5929 22.2114 25.5929C22.2114 25.5929 22.2114 25.5929 22.2114 25.5929C22.2114 25.5929 22.2114 25.5929 22.2114 25.5929C22.2114 25.5929 22.2114 25.5929 22.2114 25.5929C22.2114 25.5929 22.2114 25.5929 22.2114 25.5929C22.2114 25.5929 22.2114 25.5929 22.2114 25.5929C22.2114 25.5929 22.2114 25.5929 22.2114 25.5929C22.2114 25.5929 22.2114 25.5929 22.2114 25.5929C22.2114 25.5929 22.2114 25.5929 22.2114 25.5929C22.2114 25.5929 22.2114 25.5929 22.2114 25.5929C22.2114 25.5929 22.2114 25.5929 22.2114 25.5929C22.2114 25.5929 22.2114 25.5929 22.2114 25.5929C22.2114 25.5929 22.2114 25.5929 22.2114 25.5929C22.2114 25.5929 22.2114 25.5929 22.2114 25.5929C22.2114 25.5929 22.2114 25.5929 22.2114 25.5929C22.2114 25.5929 22.2114 25.5929 22.2114 25.5929C22.2114 25.5929 22.2114 25.5929 22.2114 25.5929C22.2114 25.5929 22.2114 25.5929 22.2114 25.5929C22.2114 25.5929 22.2114 25.5929 22.2114 25.5929C22.2114 25.5929 22.2114 25.5929 22.2114 25.5929C22.2114 25.5929 22.2114 25.5929 22.2114 25.5929C22.2114 25.5929 22.2114 25.5929 22.2114 25.5929C22.2114 25.5929 22.2114 25.5929 22.2114 25.5929C22.2114 25.5929 22.2114 25.5929 22.2114 25.5929C22.2114 25.5929 22.2114 25.5929 22.2113 25.5929C22.2113 25.5929 22.2113 25.5929 22.2113 25.5929C22.2113 25.5929 22.2113 25.5929 22.2113 25.5929C22.2113 25.5929 22.2113 25.5929 22.2113 25.5929C22.2113 25.5929 22.2113 25.5929 22.2113 25.5929C22.2113 25.5929 22.2113 25.5929 22.2113 25.5929C22.2113 25.5929 22.2113 25.5929 22.2113 25.5929C22.2113 25.5929 22.2113 25.5929 22.2113 25.5929C22.2113 25.5929 22.2113 25.5929 22.2113 25.5929C22.2113 25.5929 22.2113 25.5929 22.2113 25.5929C22.2113 25.5929 22.2113 25.5929 22.2113 25.5929C22.2113 25.5929 22.2113 25.5929 22.2113 25.5929C22.2113 25.5929 22.2113 25.5929 22.2113 25.5929C22.2113 25.5929 22.2113 25.5929 22.2113 25.5929C22.2113 25.5929 22.2113 25.5929 22.2113 25.5929C22.2113 25.5929 22.2113 25.5929 22.2113 25.5929C22.2113 25.5929 22.2113 25.5929 22.2113 25.5929C22.2113 25.5929 22.2113 25.5929 22.2113 25.5929C22.2113 25.5929 22.2113 25.5929 22.2113 25.5929C22.2113 25.5929 22.2113 25.5929 22.2113 25.5929C22.2113 25.5929 22.2113 25.5929 22.2113 25.5929C22.2113 25.5929 22.2113 25.5929 22.2113 25.5929C22.2113 25.5929 22.2113 25.5929 22.2113 25.5929C22.2113 25.5929 22.2113 25.5929 22.2113 25.5929C22.2113 25.5929 22.2113 25.5929 22.2113 25.5929C22.2113 25.5929 22.2113 25.5929 22.2113 25.5929C22.2113 25.5929 22.2113 25.5929 22.2113 25.5929C22.2113 25.5929 22.2113 25.5929 22.2113 25.5929C22.2113 25.5929 22.2113 25.5929 22.2113 25.5929C22.2113 25.5929 22.2113 25.5929 22.2113 25.5929C22.2113 25.5929 22.2113 25.5929 22.2113 25.5929C22.2113 25.5929 22.2113 25.5929 22.2113 25.5929C22.2113 25.5929 22.2113 25.5929 22.2113 25.5929C22.2113 25.5929 22.2113 25.5929 22.2113 25.5929C22.2113 25.5929 22.2113 25.5929 22.2113 25.5929C22.2113 25.5929 22.2113 25.5929 22.2113 25.5929C22.2113 25.5929 22.2113 25.5929 22.2113 25.5929C22.2113 25.5929 22.2113 25.5929 22.2113 25.5929C22.2113 25.5929 22.2113 25.5929 22.2113 25.5929C22.2113 25.5929 22.2113 25.5929 22.2113 25.5929C22.2113 25.5929 22.2113 25.5929 22.2113 25.5929C22.2113 25.5929 22.2113 25.5929 22.2113 25.5929C22.2113 25.5929 22.2113 25.5929 22.2113 25.5929C22.2113 25.5929 22.2113 25.5929 22.2113 25.5929C22.2112 25.5929 22.2112 25.5929 22.2112 25.5929C22.2112 25.5929 22.2112 25.5929 22.2112 25.5929C22.2112 25.5929 22.2112 25.5929 22.2112 25.5929C22.2112 25.5929 22.2112 25.5929 22.2112 25.5929C22.2112 25.5929 22.2112 25.5929 22.2112 25.5929C22.2112 25.5929 22.2112 25.5929 22.2112 25.5929C22.2112 25.5929 22.2112 25.5929 22.2112 25.5929C22.2112 25.5929 22.2112 25.5929 22.2112 25.5929C22.2112 25.5929 22.2112 25.5929 22.2112 25.5929C22.2112 25.5929 22.2112 25.5929 22.2112 25.5929C22.2112 25.5929 22.2112 25.5929 22.2112 25.5929C22.2112 25.5929 22.2112 25.5929 22.2112 25.5929C22.2112 25.5929 22.2112 25.5929 22.2112 25.5929C22.2112 25.5929 22.2112 25.5929 22.2112 25.5929C22.2112 25.5929 22.2112 25.5929 22.2112 25.5929C22.2112 25.5929 22.2112 25.5929 22.2112 25.5929C22.2112 25.5929 22.2112 25.5929 22.2112 25.5929C22.2112 25.5929 22.2112 25.5929 22.2112 25.5929C22.2112 25.5929 22.2112 25.5929 22.2112 25.5929C22.2112 25.5929 22.2112 25.5929 22.2112 25.5929C22.2112 25.5929 22.2112 25.5929 22.2112 25.5929C22.2112 25.5929 22.2112 25.5929 22.2112 25.5929C22.2112 25.5929 22.2112 25.5929 22.2112 25.5929C22.2112 25.5929 22.2112 25.5929 22.2112 25.5929C22.2112 25.5929 22.2112 25.5929 22.2112 25.5929C22.2112 25.5929 22.2112 25.5929 22.2112 25.5929C22.2112 25.5929 22.2112 25.5929 22.2112 25.5929C22.2112 25.5929 22.2112 25.5929 22.2112 25.5929C22.2112 25.5929 22.2112 25.5929 22.2112 25.5929C22.2112 25.5929 22.2112 25.5929 22.2112 25.5929C22.2112 25.5929 22.2112 25.5929 22.2112 25.5929C22.2112 25.5929 22.2112 25.5929 22.2112 25.5929C22.2112 25.5929 22.2112 25.5929 22.2112 25.5929C22.2112 25.5929 22.2112 25.5929 22.2112 25.5929C22.2112 25.5929 22.2112 25.5929 22.2112 25.5929C22.2112 25.5929 22.2112 25.5929 22.2112 25.5929C22.2112 25.5929 22.2112 25.5929 22.2112 25.5929C22.2112 25.5929 22.2112 25.5929 22.2112 25.5929C22.2112 25.5929 22.2112 25.5929 22.2112 25.5929C22.2112 25.5929 22.2112 25.5929 22.2112 25.5929C22.2112 25.5929 22.2112 25.5929 22.2112 25.5929C22.2112 25.5929 22.2112 25.5929 22.2112 25.5929C22.2112 25.5929 22.2112 25.5929 22.2112 25.5929C22.2111 25.5929 22.2111 25.5929 22.2111 25.5929C22.2111 25.5929 22.2111 25.5929 22.2111 25.5929C22.2111 25.5929 22.2111 25.5929 22.2111 25.5929C22.2111 25.5929 22.2111 25.5929 22.2111 25.5929C22.2111 25.5929 22.2111 25.5929 22.2111 25.5929C22.2111 25.5929 22.2111 25.5929 22.2111 25.5929C22.2111 25.5929 22.2111 25.5929 22.2111 25.5929C22.2111 25.5929 22.2111 25.5929 22.2111 25.5929C22.2111 25.5929 22.2111 25.5929 22.2111 25.5929C22.2111 25.5929 22.2111 25.5929 22.2111 25.5929C22.2111 25.5929 22.2111 25.5929 22.2111 25.5929C22.2111 25.5929 22.2111 25.5929 22.2111 25.5929C22.2111 25.5929 22.2111 25.5929 22.2111 25.5929C22.2111 25.5929 22.2111 25.5929 22.2111 25.5929C22.2111 25.5929 22.2111 25.5929 22.2111 25.5929C22.2111 25.5929 22.2111 25.5929 22.2111 25.5929C22.2111 25.5929 22.2111 25.5929 22.2111 25.5929C22.2111 25.5929 22.2111 25.5929 22.2111 25.5929C22.2111 25.5929 22.2111 25.5929 22.2111 25.5929C22.2111 25.5929 22.2111 25.5929 22.2111 25.5929C22.2111 25.5929 22.2111 25.5929 22.2111 25.5929C22.2111 25.5929 22.2111 25.5929 22.2111 25.5929C22.2111 25.5929 22.2111 25.5929 22.2111 25.5929C22.2111 25.5929 22.2111 25.5929 22.2111 25.5929C22.2111 25.5929 22.2111 25.5929 22.2111 25.5929C22.2111 25.5929 22.2111 25.5929 22.2111 25.5929C22.2111 25.5929 22.2111 25.5929 22.2111 25.5929C22.2111 25.5929 22.2111 25.5929 22.2111 25.5929C22.2111 25.5929 22.2111 25.5929 22.2111 25.5929C22.2111 25.5929 22.2111 25.5929 22.2111 25.5929C22.2111 25.5929 22.2111 25.5929 22.2111 25.5929C22.2111 25.5929 22.2111 25.5929 22.2111 25.5929C22.2111 25.5929 22.2111 25.5929 22.2111 25.5929C22.2111 25.5929 22.2111 25.5929 22.2111 25.5929C22.2111 25.5929 22.2111 25.5929 22.2111 25.5929C22.2111 25.5929 22.2111 25.5929 22.2111 25.5929C22.2111 25.5929 22.2111 25.5929 22.2111 25.5929C22.2111 25.5929 22.2111 25.5929 22.2111 25.5929C22.2111 25.5929 22.2111 25.5929 22.2111 25.5929C22.2111 25.5929 22.2111 25.5929 22.2111 25.5929C22.2111 25.5929 22.2111 25.5929 22.2111 25.5929C22.2111 25.5929 22.2111 25.5929 22.2111 25.5929C22.2111 25.5929 22.2111 25.5929 22.2111 25.5929C22.2111 25.5929 22.211 25.5929 22.211 25.5929C22.211 25.5929 22.211 25.5929 22.211 25.5929C22.211 25.5929 22.211 25.5929 22.211 25.5929C22.211 25.5929 22.211 25.5929 22.211 25.5929C22.211 25.5929 22.211 25.5929 22.211 25.5929C22.211 25.5929 22.211 25.5929 22.211 25.5929C22.211 25.5929 22.211 25.5929 22.211 25.5929C22.211 25.5929 22.211 25.5929 22.211 25.5929C22.211 25.5929 22.211 25.5929 22.211 25.5929C22.211 25.5929 22.211 25.5929 22.211 25.5929C22.211 25.5929 22.211 25.5929 22.211 25.5929C22.211 25.5929 22.211 25.5929 22.211 25.5929C22.211 25.5929 22.211 25.5929 22.211 25.5929C22.211 25.5929 22.211 25.5929 22.211 25.5929C22.211 25.5929 22.211 25.5929 22.211 25.5929C22.211 25.5929 22.211 25.5929 22.211 25.5929C22.211 25.5929 22.211 25.5929 22.211 25.5929C22.211 25.5929 22.211 25.5929 22.211 25.5929C22.211 25.5929 22.211 25.5929 22.211 25.5929C22.211 25.5929 22.211 25.5929 22.211 25.5929C22.211 25.5929 22.211 25.5929 22.211 25.5929C22.211 25.5929 22.211 25.5929 22.211 25.5929C22.211 25.5929 22.211 25.5929 22.211 25.5929C22.211 25.5929 22.211 25.5929 22.211 25.5929C22.211 25.5929 22.211 25.5929 22.211 25.5929C22.211 25.5929 22.211 25.5929 22.211 25.5929C22.211 25.5929 22.211 25.5929 22.211 25.5929C22.211 25.5929 22.211 25.5929 22.211 25.5929C22.211 25.5929 22.211 25.5929 22.211 25.5929C22.211 25.5929 22.211 25.5929 22.211 25.5929C22.211 25.5929 22.211 25.5929 22.211 25.5929C22.211 25.5929 22.211 25.5929 22.211 25.5929C22.211 25.5929 22.211 25.5929 22.211 25.5929C22.211 25.5929 22.211 25.5929 22.211 25.5929C22.211 25.5929 22.211 25.5929 22.211 25.5929C22.211 25.5929 22.211 25.5929 22.211 25.5929C22.211 25.5929 22.211 25.5929 22.211 25.5929C22.211 25.5929 22.211 25.5929 22.211 25.5929C22.211 25.5929 22.211 25.5929 22.211 25.5929C22.211 25.5929 22.211 25.5929 22.211 25.5929C22.211 25.5929 22.211 25.5929 22.211 25.5929C22.211 25.5929 22.211 25.5929 22.211 25.5929C22.211 25.5929 22.211 25.5929 22.211 25.5929C22.211 25.5929 22.2109 25.5929 22.2109 25.5929C22.2109 25.5929 22.2109 25.5929 22.2109 25.5929C22.2109 25.5929 22.2109 25.5929 22.2109 25.5929C22.2109 25.5929 22.2109 25.5929 22.2109 25.5929C22.2109 25.5929 22.2109 25.5929 22.2109 25.5929C22.2109 25.5929 22.2109 25.5929 22.2109 25.5929C22.2109 25.5929 22.2109 25.5929 22.2109 25.5929C22.2109 25.5929 22.2109 25.5929 22.2109 25.5929C22.2109 25.5929 22.2109 25.5929 22.2109 25.5929C22.2109 25.5929 22.2109 25.5929 22.2109 25.5929C22.2109 25.5929 22.2109 25.5929 22.2109 25.5929C22.2109 25.5929 22.2109 25.5929 22.2109 25.5929C22.2109 25.5929 22.2109 25.5929 22.2109 25.5929C22.2109 25.5929 22.2109 25.5929 22.2109 25.5929C22.2109 25.5929 22.2109 25.5929 22.2109 25.5929C22.2109 25.5929 22.2109 25.5929 22.2109 25.5929C22.2109 25.5929 22.2109 25.5929 22.2109 25.5929C22.2109 25.5929 22.2109 25.5929 22.2109 25.5929C22.2109 25.5929 22.2109 25.5929 22.2109 25.5929C22.2109 25.5929 22.2109 25.5929 22.2109 25.5929C22.2109 25.5929 22.2109 25.5929 22.2109 25.5929C22.2109 25.5929 22.2109 25.5929 22.2109 25.5929C22.2109 25.5929 22.2109 25.5929 22.2109 25.5929C22.2109 25.5929 22.2109 25.5929 22.2109 25.5929C22.2109 25.5929 22.2109 25.5929 22.2109 25.5929C22.2109 25.5929 22.2109 25.5929 22.2109 25.5929C22.2109 25.5929 22.2109 25.5929 22.2109 25.5929C22.2109 25.5929 22.2109 25.5929 22.2109 25.5929C22.2109 25.5929 22.2109 25.5929 22.2109 25.5929C22.2109 25.5929 22.2109 25.5929 22.2109 25.5929C22.2109 25.5929 22.2109 25.5929 22.2109 25.5929C22.2109 25.5929 22.2109 25.5929 22.2109 25.5929C22.2109 25.5929 22.2109 25.5929 22.2109 25.5929C22.2109 25.5929 22.2109 25.5929 22.2109 25.5929C22.2109 25.5929 22.2109 25.5929 22.2109 25.5929C22.2109 25.5929 22.2109 25.5929 22.2109 25.5929C22.2109 25.5929 22.2109 25.5929 22.2109 25.5929C22.2109 25.5929 22.2109 25.5929 22.2109 25.5929C22.2109 25.5929 22.2109 25.5929 22.2109 25.5929C22.2109 25.5929 22.2109 25.5929 22.2109 25.5929C22.2109 25.5929 22.2109 25.5929 22.2109 25.5929C22.2109 25.5929 22.2109 25.5929 22.2109 25.5929C22.2109 25.5929 22.2109 25.5929 22.2109 25.5929C22.2108 25.5929 22.2108 25.5929 22.2108 25.5929C22.2108 25.5929 22.2108 25.5929 22.2108 25.5929C22.2108 25.5929 22.2108 25.5929 22.2108 25.5929C22.2108 25.5929 22.2108 25.5929 22.2108 25.5929C22.2108 25.5929 22.2108 25.5929 22.2108 25.5929C22.2108 25.5929 22.2108 25.5929 22.2108 25.5929C22.2108 25.5929 22.2108 25.5929 22.2108 25.5929C22.2108 25.5929 22.2108 25.5929 22.2108 25.5929C22.2108 25.5929 22.2108 25.5929 22.2108 25.5929C22.2108 25.5929 22.2108 25.5929 22.2108 25.5929C22.2108 25.5929 22.2108 25.5929 22.2108 25.5929C22.2108 25.5929 22.2108 25.5929 22.2108 25.5929C22.2108 25.5929 22.2108 25.5929 22.2108 25.5929C22.2108 25.5929 22.2108 25.5929 22.2108 25.5929C22.2108 25.5929 22.2108 25.5929 22.2108 25.5929C22.2108 25.5929 22.2108 25.5929 22.2108 25.5929C22.2108 25.5929 22.2108 25.5929 22.2108 25.5929C22.2108 25.5929 22.2108 25.5929 22.2108 25.5929C22.2108 25.5929 22.2108 25.5929 22.2108 25.5929C22.2108 25.5929 22.2108 25.5929 22.2108 25.5929C22.2108 25.5929 22.2108 25.5929 22.2108 25.5929C22.2108 25.5929 22.2108 25.5929 22.2108 25.5929C22.2108 25.5929 22.2108 25.5929 22.2108 25.5929C22.2108 25.5929 22.2108 25.5929 22.2108 25.5929C22.2108 25.5929 22.2108 25.5929 22.2108 25.5929C22.2108 25.5929 22.2108 25.5929 22.2108 25.5929C22.2108 25.5929 22.2108 25.5929 22.2108 25.5929C22.2108 25.5929 22.2108 25.5929 22.2108 25.5929C22.2108 25.5929 22.2108 25.5929 22.2108 25.5929C22.2108 25.5929 22.2108 25.5929 22.2108 25.5929C22.2108 25.5929 22.2108 25.5929 22.2108 25.5929C22.2108 25.5929 22.2108 25.5929 22.2108 25.5929C22.2108 25.5929 22.2108 25.5929 22.2108 25.5929C22.2108 25.5929 22.2108 25.5929 22.2108 25.5929C22.2108 25.5929 22.2108 25.5929 22.2108 25.5929C22.2108 25.5929 22.2108 25.5929 22.2108 25.5929C22.2108 25.5929 22.2108 25.5929 22.2108 25.5929C22.2108 25.5929 22.2108 25.5929 22.2108 25.5929C22.2108 25.5929 22.2108 25.5929 22.2108 25.5929C22.2108 25.5929 22.2108 25.5929 22.2108 25.5929C22.2108 25.5929 22.2108 25.5929 22.2108 25.5929C22.2108 25.5929 22.2108 25.5929 22.2108 25.5929C22.2108 25.5929 22.2108 25.5929 22.2108 25.5929C22.2108 25.5929 22.2108 25.5929 22.2107 25.5929C22.2107 25.5929 22.2107 25.5929 22.2107 25.5929C22.2107 25.5929 22.2107 25.5929 22.2107 25.5929C22.2107 25.5929 22.2107 25.5929 22.2107 25.5929C22.2107 25.5929 22.2107 25.5929 22.2107 25.5929C22.2107 25.5929 22.2107 25.5929 22.2107 25.5929C22.2107 25.5929 22.2107 25.5929 22.2107 25.5929C22.2107 25.5929 22.2107 25.5929 22.2107 25.5929C22.2107 25.5929 22.2107 25.5929 22.2107 25.5929C22.2107 25.5929 22.2107 25.5929 22.2107 25.5929C22.2107 25.5929 22.2107 25.5929 22.2107 25.5929C22.2107 25.5929 22.2107 25.5929 22.2107 25.5929C22.2107 25.5929 22.2107 25.5929 22.2107 25.5929C22.2107 25.5929 22.2107 25.5929 22.2107 25.5929C22.2107 25.5929 22.2107 25.5929 22.2107 25.5929C22.2107 25.5929 22.2107 25.5929 22.2107 25.5929C22.2107 25.5929 22.2107 25.5929 22.2107 25.5929C22.2107 25.5929 22.2107 25.5929 22.2107 25.5929C22.2107 25.5929 22.2107 25.5929 22.2107 25.5929C22.2107 25.5929 22.2107 25.5929 22.2107 25.5929C22.2107 25.5929 22.2107 25.5929 22.2107 25.5929C22.2107 25.5929 22.2107 25.5929 22.2107 25.5929C22.2107 25.5929 22.2107 25.5929 22.2107 25.5929C22.2107 25.5929 22.2107 25.5929 22.2107 25.5929C22.2107 25.5929 22.2107 25.5929 22.2107 25.5929C22.2107 25.5929 22.2107 25.5929 22.2107 25.5929C22.2107 25.5929 22.2107 25.5929 22.2107 25.5929C22.2107 25.5929 22.2107 25.5929 22.2107 25.5929C22.2107 25.5929 22.2107 25.5929 22.2107 25.5929C22.2107 25.5929 22.2107 25.5929 22.2107 25.5929C22.2107 25.5929 22.2107 25.5929 22.2107 25.5929C22.2107 25.5929 22.2107 25.5929 22.2107 25.5929C22.2107 25.5929 22.2107 25.5929 22.2107 25.5929C22.2107 25.5929 22.2107 25.5929 22.2107 25.5929C22.2107 25.5929 22.2107 25.5929 22.2107 25.5929C22.2107 25.5929 22.2107 25.5929 22.2107 25.5929C22.2107 25.5929 22.2107 25.5929 22.2107 25.5929C22.2107 25.5929 22.2107 25.5929 22.2107 25.5929C22.2107 25.5929 22.2107 25.5929 22.2107 25.5929C22.2107 25.5929 22.2107 25.5929 22.2107 25.5929C22.2107 25.5929 22.2107 25.5929 22.2107 25.5929C22.2107 25.5929 22.2107 25.5929 22.2107 25.5929C22.2107 25.5929 22.2107 25.5929 22.2107 25.5929C22.2107 25.5929 22.2107 25.5929 22.2106 25.5929C22.2106 25.5929 22.2106 25.5929 22.2106 25.5929C22.2106 25.5929 22.2106 25.5929 22.2106 25.5929C22.2106 25.5929 22.2106 25.5929 22.2106 25.5929C22.2106 25.5929 22.2106 25.5929 22.2106 25.5929C22.2106 25.5929 22.2106 25.5929 22.2106 25.5929C22.2106 25.5929 22.2106 25.5929 22.2106 25.5929C22.2106 25.5929 22.2106 25.5929 22.2106 25.5929C22.2106 25.5929 22.2106 25.5929 22.2106 25.5929C22.2106 25.5929 22.2106 25.5929 22.2106 25.5929C22.2106 25.5929 22.2106 25.5929 22.2106 25.5929C22.2106 25.5929 22.2106 25.5929 22.2106 25.5929C22.2106 25.5929 22.2106 25.5929 22.2106 25.5929C22.2106 25.5929 22.2106 25.5929 22.2106 25.5929C22.2106 25.5929 22.2106 25.5929 22.2106 25.5929C22.2106 25.5929 22.2106 25.5929 22.2106 25.5929C22.2106 25.5929 22.2106 25.5929 22.2106 25.5929C22.2106 25.5929 22.2106 25.5929 22.2106 25.5929C22.2106 25.5929 22.2106 25.5929 22.2106 25.5929C22.2106 25.5929 22.2106 25.5929 22.2106 25.5929C22.2106 25.5929 22.2106 25.5929 22.2106 25.5929C22.2106 25.5929 22.2106 25.5929 22.2106 25.5929C22.2106 25.5929 22.2106 25.5929 22.2106 25.5929C22.2106 25.5929 22.2106 25.5929 22.2106 25.5929C22.2106 25.5929 22.2106 25.5929 22.2106 25.5929C22.2106 25.5929 22.2106 25.5929 22.2106 25.5929C22.2106 25.5929 22.2106 25.5929 22.2106 25.5929C22.2106 25.5929 22.2106 25.5929 22.2106 25.5929C22.2106 25.5929 22.2106 25.5929 22.2106 25.5929C22.2106 25.5929 22.2106 25.5929 22.2106 25.5929C22.2106 25.5929 22.2106 25.5929 22.2106 25.5929C22.2106 25.5929 22.2106 25.5929 22.2106 25.5929C22.2106 25.5929 22.2106 25.5929 22.2106 25.5929C22.2106 25.5929 22.2106 25.5929 22.2106 25.5929C22.2106 25.5929 22.2106 25.5929 22.2106 25.5929C22.2106 25.5929 22.2106 25.5929 22.2106 25.5929C22.2106 25.5929 22.2106 25.5929 22.2106 25.5929C22.2106 25.5929 22.2106 25.5929 22.2106 25.5929C22.2106 25.5929 22.2106 25.5929 22.2106 25.5929C22.2106 25.5929 22.2106 25.5929 22.2106 25.5929C22.2106 25.5929 22.2106 25.5929 22.2106 25.5929C22.2106 25.5929 22.2106 25.5929 22.2106 25.5929C22.2106 25.5929 22.2106 25.5929 22.2106 25.5929C22.2106 25.5929 22.2106 25.5929 22.2106 25.5929C22.2106 25.5929 22.2105 25.5929 22.2105 25.5929C22.2105 25.5929 22.2105 25.5929 22.2105 25.5929C22.2105 25.5929 22.2105 25.5929 22.2105 25.5929C22.2105 25.5929 22.2105 25.5929 22.2105 25.5929C22.2105 25.5929 22.2105 25.5929 22.2105 25.5929C22.2105 25.5929 22.2105 25.5929 22.2105 25.5929C22.2105 25.5929 22.2105 25.5929 22.2105 25.5929C22.2105 25.5929 22.2105 25.5929 22.2105 25.5929C22.2105 25.5929 22.2105 25.5929 22.2105 25.5929V25.8749V26.157C22.2105 26.157 22.2105 26.157 22.2105 26.157C22.2105 26.157 22.2105 26.157 22.2105 26.157C22.2105 26.157 22.2105 26.157 22.2105 26.157C22.2105 26.157 22.2105 26.157 22.2105 26.157C22.2105 26.157 22.2105 26.157 22.2105 26.157C22.2105 26.157 22.2105 26.157 22.2105 26.157C22.2105 26.157 22.2105 26.157 22.2105 26.157C22.2105 26.157 22.2105 26.157 22.2105 26.157C22.2105 26.157 22.2106 26.157 22.2106 26.157C22.2106 26.157 22.2106 26.157 22.2106 26.157C22.2106 26.157 22.2106 26.157 22.2106 26.157C22.2106 26.157 22.2106 26.157 22.2106 26.157C22.2106 26.157 22.2106 26.157 22.2106 26.157C22.2106 26.157 22.2106 26.157 22.2106 26.157C22.2106 26.157 22.2106 26.157 22.2106 26.157C22.2106 26.157 22.2106 26.157 22.2106 26.157C22.2106 26.157 22.2106 26.157 22.2106 26.157C22.2106 26.157 22.2106 26.157 22.2106 26.157C22.2106 26.157 22.2106 26.157 22.2106 26.157C22.2106 26.157 22.2106 26.157 22.2106 26.157C22.2106 26.157 22.2106 26.157 22.2106 26.157C22.2106 26.157 22.2106 26.157 22.2106 26.157C22.2106 26.157 22.2106 26.157 22.2106 26.157C22.2106 26.157 22.2106 26.157 22.2106 26.157C22.2106 26.157 22.2106 26.157 22.2106 26.157C22.2106 26.157 22.2106 26.157 22.2106 26.157C22.2106 26.157 22.2106 26.157 22.2106 26.157C22.2106 26.157 22.2106 26.157 22.2106 26.157C22.2106 26.157 22.2106 26.157 22.2106 26.157C22.2106 26.157 22.2106 26.157 22.2106 26.157C22.2106 26.157 22.2106 26.157 22.2106 26.157C22.2106 26.157 22.2106 26.157 22.2106 26.157C22.2106 26.157 22.2106 26.157 22.2106 26.157C22.2106 26.157 22.2106 26.157 22.2106 26.157C22.2106 26.157 22.2106 26.157 22.2106 26.157C22.2106 26.157 22.2106 26.157 22.2106 26.157C22.2106 26.157 22.2106 26.157 22.2106 26.157C22.2106 26.157 22.2106 26.157 22.2106 26.157C22.2106 26.157 22.2106 26.157 22.2106 26.157C22.2106 26.157 22.2106 26.157 22.2106 26.157C22.2106 26.157 22.2106 26.157 22.2106 26.157C22.2106 26.157 22.2106 26.157 22.2106 26.157C22.2106 26.157 22.2106 26.157 22.2106 26.157C22.2106 26.157 22.2106 26.157 22.2106 26.157C22.2106 26.157 22.2106 26.157 22.2106 26.157C22.2106 26.157 22.2106 26.157 22.2106 26.157C22.2106 26.157 22.2106 26.157 22.2106 26.157C22.2106 26.157 22.2106 26.157 22.2106 26.157C22.2106 26.157 22.2106 26.157 22.2106 26.157C22.2106 26.157 22.2106 26.157 22.2106 26.157C22.2106 26.157 22.2106 26.157 22.2106 26.157C22.2106 26.157 22.2106 26.157 22.2106 26.157C22.2107 26.157 22.2107 26.157 22.2107 26.157C22.2107 26.157 22.2107 26.157 22.2107 26.157C22.2107 26.157 22.2107 26.157 22.2107 26.157C22.2107 26.157 22.2107 26.157 22.2107 26.157C22.2107 26.157 22.2107 26.157 22.2107 26.157C22.2107 26.157 22.2107 26.157 22.2107 26.157C22.2107 26.157 22.2107 26.157 22.2107 26.157C22.2107 26.157 22.2107 26.157 22.2107 26.157C22.2107 26.157 22.2107 26.157 22.2107 26.157C22.2107 26.157 22.2107 26.157 22.2107 26.157C22.2107 26.157 22.2107 26.157 22.2107 26.157C22.2107 26.157 22.2107 26.157 22.2107 26.157C22.2107 26.157 22.2107 26.157 22.2107 26.157C22.2107 26.157 22.2107 26.157 22.2107 26.157C22.2107 26.157 22.2107 26.157 22.2107 26.157C22.2107 26.157 22.2107 26.157 22.2107 26.157C22.2107 26.157 22.2107 26.157 22.2107 26.157C22.2107 26.157 22.2107 26.157 22.2107 26.157C22.2107 26.157 22.2107 26.157 22.2107 26.157C22.2107 26.157 22.2107 26.157 22.2107 26.157C22.2107 26.157 22.2107 26.157 22.2107 26.157C22.2107 26.157 22.2107 26.157 22.2107 26.157C22.2107 26.157 22.2107 26.157 22.2107 26.157C22.2107 26.157 22.2107 26.157 22.2107 26.157C22.2107 26.157 22.2107 26.157 22.2107 26.157C22.2107 26.157 22.2107 26.157 22.2107 26.157C22.2107 26.157 22.2107 26.157 22.2107 26.157C22.2107 26.157 22.2107 26.157 22.2107 26.157C22.2107 26.157 22.2107 26.157 22.2107 26.157C22.2107 26.157 22.2107 26.157 22.2107 26.157C22.2107 26.157 22.2107 26.157 22.2107 26.157C22.2107 26.157 22.2107 26.157 22.2107 26.157C22.2107 26.157 22.2107 26.157 22.2107 26.157C22.2107 26.157 22.2107 26.157 22.2107 26.157C22.2107 26.157 22.2107 26.157 22.2107 26.157C22.2107 26.157 22.2107 26.157 22.2107 26.157C22.2107 26.157 22.2107 26.157 22.2107 26.157C22.2107 26.157 22.2107 26.157 22.2107 26.157C22.2107 26.157 22.2107 26.157 22.2107 26.157C22.2107 26.157 22.2107 26.157 22.2107 26.157C22.2107 26.157 22.2107 26.157 22.2107 26.157C22.2107 26.157 22.2107 26.157 22.2107 26.157C22.2107 26.157 22.2107 26.157 22.2107 26.157C22.2108 26.157 22.2108 26.157 22.2108 26.157C22.2108 26.157 22.2108 26.157 22.2108 26.157C22.2108 26.157 22.2108 26.157 22.2108 26.157C22.2108 26.157 22.2108 26.157 22.2108 26.157C22.2108 26.157 22.2108 26.157 22.2108 26.157C22.2108 26.157 22.2108 26.157 22.2108 26.157C22.2108 26.157 22.2108 26.157 22.2108 26.157C22.2108 26.157 22.2108 26.157 22.2108 26.157C22.2108 26.157 22.2108 26.157 22.2108 26.157C22.2108 26.157 22.2108 26.157 22.2108 26.157C22.2108 26.157 22.2108 26.157 22.2108 26.157C22.2108 26.157 22.2108 26.157 22.2108 26.157C22.2108 26.157 22.2108 26.157 22.2108 26.157C22.2108 26.157 22.2108 26.157 22.2108 26.157C22.2108 26.157 22.2108 26.157 22.2108 26.157C22.2108 26.157 22.2108 26.157 22.2108 26.157C22.2108 26.157 22.2108 26.157 22.2108 26.157C22.2108 26.157 22.2108 26.157 22.2108 26.157C22.2108 26.157 22.2108 26.157 22.2108 26.157C22.2108 26.157 22.2108 26.157 22.2108 26.157C22.2108 26.157 22.2108 26.157 22.2108 26.157C22.2108 26.157 22.2108 26.157 22.2108 26.157C22.2108 26.157 22.2108 26.157 22.2108 26.157C22.2108 26.157 22.2108 26.157 22.2108 26.157C22.2108 26.157 22.2108 26.157 22.2108 26.157C22.2108 26.157 22.2108 26.157 22.2108 26.157C22.2108 26.157 22.2108 26.157 22.2108 26.157C22.2108 26.157 22.2108 26.157 22.2108 26.157C22.2108 26.157 22.2108 26.157 22.2108 26.157C22.2108 26.157 22.2108 26.157 22.2108 26.157C22.2108 26.157 22.2108 26.157 22.2108 26.157C22.2108 26.157 22.2108 26.157 22.2108 26.157C22.2108 26.157 22.2108 26.157 22.2108 26.157C22.2108 26.157 22.2108 26.157 22.2108 26.157C22.2108 26.157 22.2108 26.157 22.2108 26.157C22.2108 26.157 22.2108 26.157 22.2108 26.157C22.2108 26.157 22.2108 26.157 22.2108 26.157C22.2108 26.157 22.2108 26.157 22.2108 26.157C22.2108 26.157 22.2108 26.157 22.2108 26.157C22.2108 26.157 22.2108 26.157 22.2108 26.157C22.2108 26.157 22.2108 26.157 22.2108 26.157C22.2108 26.157 22.2108 26.157 22.2108 26.157C22.2108 26.157 22.2108 26.157 22.2108 26.157C22.2108 26.157 22.2108 26.157 22.2109 26.157C22.2109 26.157 22.2109 26.157 22.2109 26.157C22.2109 26.157 22.2109 26.157 22.2109 26.157C22.2109 26.157 22.2109 26.157 22.2109 26.157C22.2109 26.157 22.2109 26.157 22.2109 26.157C22.2109 26.157 22.2109 26.157 22.2109 26.157C22.2109 26.157 22.2109 26.157 22.2109 26.157C22.2109 26.157 22.2109 26.157 22.2109 26.157C22.2109 26.157 22.2109 26.157 22.2109 26.157C22.2109 26.157 22.2109 26.157 22.2109 26.157C22.2109 26.157 22.2109 26.157 22.2109 26.157C22.2109 26.157 22.2109 26.157 22.2109 26.157C22.2109 26.157 22.2109 26.157 22.2109 26.157C22.2109 26.157 22.2109 26.157 22.2109 26.157C22.2109 26.157 22.2109 26.157 22.2109 26.157C22.2109 26.157 22.2109 26.157 22.2109 26.157C22.2109 26.157 22.2109 26.157 22.2109 26.157C22.2109 26.157 22.2109 26.157 22.2109 26.157C22.2109 26.157 22.2109 26.157 22.2109 26.157C22.2109 26.157 22.2109 26.157 22.2109 26.157C22.2109 26.157 22.2109 26.157 22.2109 26.157C22.2109 26.157 22.2109 26.157 22.2109 26.157C22.2109 26.157 22.2109 26.157 22.2109 26.157C22.2109 26.157 22.2109 26.157 22.2109 26.157C22.2109 26.157 22.2109 26.157 22.2109 26.157C22.2109 26.157 22.2109 26.157 22.2109 26.157C22.2109 26.157 22.2109 26.157 22.2109 26.157C22.2109 26.157 22.2109 26.157 22.2109 26.157C22.2109 26.157 22.2109 26.157 22.2109 26.157C22.2109 26.157 22.2109 26.157 22.2109 26.157C22.2109 26.157 22.2109 26.157 22.2109 26.157C22.2109 26.157 22.2109 26.157 22.2109 26.157C22.2109 26.157 22.2109 26.157 22.2109 26.157C22.2109 26.157 22.2109 26.157 22.2109 26.157C22.2109 26.157 22.2109 26.157 22.2109 26.157C22.2109 26.157 22.2109 26.157 22.2109 26.157C22.2109 26.157 22.2109 26.157 22.2109 26.157C22.2109 26.157 22.2109 26.157 22.2109 26.157C22.2109 26.157 22.2109 26.157 22.2109 26.157C22.2109 26.157 22.2109 26.157 22.2109 26.157C22.2109 26.157 22.2109 26.157 22.2109 26.157C22.2109 26.157 22.2109 26.157 22.2109 26.157C22.2109 26.157 22.2109 26.157 22.2109 26.157C22.2109 26.157 22.211 26.157 22.211 26.157C22.211 26.157 22.211 26.157 22.211 26.157C22.211 26.157 22.211 26.157 22.211 26.157C22.211 26.157 22.211 26.157 22.211 26.157C22.211 26.157 22.211 26.157 22.211 26.157C22.211 26.157 22.211 26.157 22.211 26.157C22.211 26.157 22.211 26.157 22.211 26.157C22.211 26.157 22.211 26.157 22.211 26.157C22.211 26.157 22.211 26.157 22.211 26.157C22.211 26.157 22.211 26.157 22.211 26.157C22.211 26.157 22.211 26.157 22.211 26.157C22.211 26.157 22.211 26.157 22.211 26.157C22.211 26.157 22.211 26.157 22.211 26.157C22.211 26.157 22.211 26.157 22.211 26.157C22.211 26.157 22.211 26.157 22.211 26.157C22.211 26.157 22.211 26.157 22.211 26.157C22.211 26.157 22.211 26.157 22.211 26.157C22.211 26.157 22.211 26.157 22.211 26.157C22.211 26.157 22.211 26.157 22.211 26.157C22.211 26.157 22.211 26.157 22.211 26.157C22.211 26.157 22.211 26.157 22.211 26.157C22.211 26.157 22.211 26.157 22.211 26.157C22.211 26.157 22.211 26.157 22.211 26.157C22.211 26.157 22.211 26.157 22.211 26.157C22.211 26.157 22.211 26.157 22.211 26.157C22.211 26.157 22.211 26.157 22.211 26.157C22.211 26.157 22.211 26.157 22.211 26.157C22.211 26.157 22.211 26.157 22.211 26.157C22.211 26.157 22.211 26.157 22.211 26.157C22.211 26.157 22.211 26.157 22.211 26.157C22.211 26.157 22.211 26.157 22.211 26.157C22.211 26.157 22.211 26.157 22.211 26.157C22.211 26.157 22.211 26.157 22.211 26.157C22.211 26.157 22.211 26.157 22.211 26.157C22.211 26.157 22.211 26.157 22.211 26.157C22.211 26.157 22.211 26.157 22.211 26.157C22.211 26.157 22.211 26.157 22.211 26.157C22.211 26.157 22.211 26.157 22.211 26.157C22.211 26.157 22.211 26.157 22.211 26.157C22.211 26.157 22.211 26.157 22.211 26.157C22.211 26.157 22.211 26.157 22.211 26.157C22.211 26.157 22.211 26.157 22.211 26.157C22.211 26.157 22.211 26.157 22.211 26.157C22.211 26.157 22.2111 26.157 22.2111 26.157C22.2111 26.157 22.2111 26.157 22.2111 26.157C22.2111 26.157 22.2111 26.157 22.2111 26.157C22.2111 26.157 22.2111 26.157 22.2111 26.157C22.2111 26.157 22.2111 26.157 22.2111 26.157C22.2111 26.157 22.2111 26.157 22.2111 26.157C22.2111 26.157 22.2111 26.157 22.2111 26.157C22.2111 26.157 22.2111 26.157 22.2111 26.157C22.2111 26.157 22.2111 26.157 22.2111 26.157C22.2111 26.157 22.2111 26.157 22.2111 26.157C22.2111 26.157 22.2111 26.157 22.2111 26.157C22.2111 26.157 22.2111 26.157 22.2111 26.157C22.2111 26.157 22.2111 26.157 22.2111 26.157C22.2111 26.157 22.2111 26.157 22.2111 26.157C22.2111 26.157 22.2111 26.157 22.2111 26.157C22.2111 26.157 22.2111 26.157 22.2111 26.157C22.2111 26.157 22.2111 26.157 22.2111 26.157C22.2111 26.157 22.2111 26.157 22.2111 26.157C22.2111 26.157 22.2111 26.157 22.2111 26.157C22.2111 26.157 22.2111 26.157 22.2111 26.157C22.2111 26.157 22.2111 26.157 22.2111 26.157C22.2111 26.157 22.2111 26.157 22.2111 26.157C22.2111 26.157 22.2111 26.157 22.2111 26.157C22.2111 26.157 22.2111 26.157 22.2111 26.157C22.2111 26.157 22.2111 26.157 22.2111 26.157C22.2111 26.157 22.2111 26.157 22.2111 26.157C22.2111 26.157 22.2111 26.157 22.2111 26.157C22.2111 26.157 22.2111 26.157 22.2111 26.157C22.2111 26.157 22.2111 26.157 22.2111 26.157C22.2111 26.157 22.2111 26.157 22.2111 26.157C22.2111 26.157 22.2111 26.157 22.2111 26.157C22.2111 26.157 22.2111 26.157 22.2111 26.157C22.2111 26.157 22.2111 26.157 22.2111 26.157C22.2111 26.157 22.2111 26.157 22.2111 26.157C22.2111 26.157 22.2111 26.157 22.2111 26.157C22.2111 26.157 22.2111 26.157 22.2111 26.157C22.2111 26.157 22.2111 26.157 22.2111 26.157C22.2111 26.157 22.2111 26.157 22.2111 26.157C22.2111 26.157 22.2111 26.157 22.2111 26.157C22.2111 26.157 22.2111 26.157 22.2111 26.157C22.2111 26.157 22.2111 26.157 22.2111 26.157C22.2111 26.157 22.2111 26.157 22.2111 26.157C22.2111 26.157 22.2111 26.157 22.2111 26.157C22.2111 26.157 22.2111 26.157 22.2112 26.157C22.2112 26.157 22.2112 26.157 22.2112 26.157C22.2112 26.157 22.2112 26.157 22.2112 26.157C22.2112 26.157 22.2112 26.157 22.2112 26.157C22.2112 26.157 22.2112 26.157 22.2112 26.157C22.2112 26.157 22.2112 26.157 22.2112 26.157C22.2112 26.157 22.2112 26.157 22.2112 26.157C22.2112 26.157 22.2112 26.157 22.2112 26.157C22.2112 26.157 22.2112 26.157 22.2112 26.157C22.2112 26.157 22.2112 26.157 22.2112 26.157C22.2112 26.157 22.2112 26.157 22.2112 26.157C22.2112 26.157 22.2112 26.157 22.2112 26.157C22.2112 26.157 22.2112 26.157 22.2112 26.157C22.2112 26.157 22.2112 26.157 22.2112 26.157C22.2112 26.157 22.2112 26.157 22.2112 26.157C22.2112 26.157 22.2112 26.157 22.2112 26.157C22.2112 26.157 22.2112 26.157 22.2112 26.157C22.2112 26.157 22.2112 26.157 22.2112 26.157C22.2112 26.157 22.2112 26.157 22.2112 26.157C22.2112 26.157 22.2112 26.157 22.2112 26.157C22.2112 26.157 22.2112 26.157 22.2112 26.157C22.2112 26.157 22.2112 26.157 22.2112 26.157C22.2112 26.157 22.2112 26.157 22.2112 26.157C22.2112 26.157 22.2112 26.157 22.2112 26.157C22.2112 26.157 22.2112 26.157 22.2112 26.157C22.2112 26.157 22.2112 26.157 22.2112 26.157C22.2112 26.157 22.2112 26.157 22.2112 26.157C22.2112 26.157 22.2112 26.157 22.2112 26.157C22.2112 26.157 22.2112 26.157 22.2112 26.157C22.2112 26.157 22.2112 26.157 22.2112 26.157C22.2112 26.157 22.2112 26.157 22.2112 26.157C22.2112 26.157 22.2112 26.157 22.2112 26.157C22.2112 26.157 22.2112 26.157 22.2112 26.157C22.2112 26.157 22.2112 26.157 22.2112 26.157C22.2112 26.157 22.2112 26.157 22.2112 26.157C22.2112 26.157 22.2112 26.157 22.2112 26.157C22.2112 26.157 22.2112 26.157 22.2112 26.157C22.2112 26.157 22.2112 26.157 22.2112 26.157C22.2112 26.157 22.2112 26.157 22.2112 26.157C22.2112 26.157 22.2112 26.157 22.2112 26.157C22.2112 26.157 22.2112 26.157 22.2112 26.157C22.2112 26.157 22.2112 26.157 22.2112 26.157C22.2112 26.157 22.2112 26.157 22.2112 26.157C22.2112 26.157 22.2112 26.157 22.2113 26.157C22.2113 26.157 22.2113 26.157 22.2113 26.157C22.2113 26.157 22.2113 26.157 22.2113 26.157C22.2113 26.157 22.2113 26.157 22.2113 26.157C22.2113 26.157 22.2113 26.157 22.2113 26.157C22.2113 26.157 22.2113 26.157 22.2113 26.157C22.2113 26.157 22.2113 26.157 22.2113 26.157C22.2113 26.157 22.2113 26.157 22.2113 26.157C22.2113 26.157 22.2113 26.157 22.2113 26.157C22.2113 26.157 22.2113 26.157 22.2113 26.157C22.2113 26.157 22.2113 26.157 22.2113 26.157C22.2113 26.157 22.2113 26.157 22.2113 26.157C22.2113 26.157 22.2113 26.157 22.2113 26.157C22.2113 26.157 22.2113 26.157 22.2113 26.157C22.2113 26.157 22.2113 26.157 22.2113 26.157C22.2113 26.157 22.2113 26.157 22.2113 26.157C22.2113 26.157 22.2113 26.157 22.2113 26.157C22.2113 26.157 22.2113 26.157 22.2113 26.157C22.2113 26.157 22.2113 26.157 22.2113 26.157C22.2113 26.157 22.2113 26.157 22.2113 26.157C22.2113 26.157 22.2113 26.157 22.2113 26.157C22.2113 26.157 22.2113 26.157 22.2113 26.157C22.2113 26.157 22.2113 26.157 22.2113 26.157C22.2113 26.157 22.2113 26.157 22.2113 26.157C22.2113 26.157 22.2113 26.157 22.2113 26.157C22.2113 26.157 22.2113 26.157 22.2113 26.157C22.2113 26.157 22.2113 26.157 22.2113 26.157C22.2113 26.157 22.2113 26.157 22.2113 26.157C22.2113 26.157 22.2113 26.157 22.2113 26.157C22.2113 26.157 22.2113 26.157 22.2113 26.157C22.2113 26.157 22.2113 26.157 22.2113 26.157C22.2113 26.157 22.2113 26.157 22.2113 26.157C22.2113 26.157 22.2113 26.157 22.2113 26.157C22.2113 26.157 22.2113 26.157 22.2113 26.157C22.2113 26.157 22.2113 26.157 22.2113 26.157C22.2113 26.157 22.2113 26.157 22.2113 26.157C22.2113 26.157 22.2113 26.157 22.2113 26.157C22.2113 26.157 22.2113 26.157 22.2113 26.157C22.2113 26.157 22.2113 26.157 22.2113 26.157C22.2113 26.157 22.2113 26.157 22.2113 26.157C22.2113 26.157 22.2113 26.157 22.2113 26.157C22.2113 26.157 22.2113 26.157 22.2113 26.157C22.2113 26.157 22.2113 26.157 22.2113 26.157C22.2113 26.157 22.2113 26.157 22.2113 26.157C22.2114 26.157 22.2114 26.157 22.2114 26.157C22.2114 26.157 22.2114 26.157 22.2114 26.157C22.2114 26.157 22.2114 26.157 22.2114 26.157C22.2114 26.157 22.2114 26.157 22.2114 26.157C22.2114 26.157 22.2114 26.157 22.2114 26.157C22.2114 26.157 22.2114 26.157 22.2114 26.157C22.2114 26.157 22.2114 26.157 22.2114 26.157C22.2114 26.157 22.2114 26.157 22.2114 26.157C22.2114 26.157 22.2114 26.157 22.2114 26.157C22.2114 26.157 22.2114 26.157 22.2114 26.157C22.2114 26.157 22.2114 26.157 22.2114 26.157C22.2114 26.157 22.2114 26.157 22.2114 26.157C22.2114 26.157 22.2114 26.157 22.2114 26.157C22.2114 26.157 22.2114 26.157 22.2114 26.157C22.2114 26.157 22.2114 26.157 22.2114 26.157C22.2114 26.157 22.2114 26.157 22.2114 26.157C22.2114 26.157 22.2114 26.157 22.2114 26.157C22.2114 26.157 22.2114 26.157 22.2114 26.157C22.2114 26.157 22.2114 26.157 22.2114 26.157C22.2114 26.157 22.2114 26.157 22.2114 26.157C22.2114 26.157 22.2114 26.157 22.2114 26.157C22.2114 26.157 22.2114 26.157 22.2114 26.157C22.2114 26.157 22.2114 26.157 22.2114 26.157C22.2114 26.157 22.2114 26.157 22.2114 26.157C22.2114 26.157 22.2114 26.157 22.2114 26.157C22.2114 26.157 22.2114 26.157 22.2114 26.157C22.2114 26.157 22.2114 26.157 22.2114 26.157C22.2114 26.157 22.2114 26.157 22.2114 26.157C22.2114 26.157 22.2114 26.157 22.2114 26.157C22.2114 26.157 22.2114 26.157 22.2114 26.157C22.2114 26.157 22.2114 26.157 22.2114 26.157C22.2114 26.157 22.2114 26.157 22.2114 26.157C22.2114 26.157 22.2114 26.157 22.2114 26.157C22.2114 26.157 22.2114 26.157 22.2114 26.157C22.2114 26.157 22.2114 26.157 22.2114 26.157C22.2114 26.157 22.2114 26.157 22.2114 26.157C22.2114 26.157 22.2114 26.157 22.2114 26.157C22.2114 26.157 22.2114 26.157 22.2114 26.157C22.2114 26.157 22.2114 26.157 22.2114 26.157C22.2114 26.157 22.2114 26.157 22.2114 26.157C22.2114 26.157 22.2114 26.157 22.2114 26.157C22.2114 26.157 22.2114 26.157 22.2114 26.157C22.2114 26.157 22.2114 26.157 22.2114 26.157C22.2115 26.157 22.2115 26.157 22.2115 26.157C22.2115 26.157 22.2115 26.157 22.2115 26.157C22.2115 26.157 22.2115 26.157 22.2115 26.157C22.2115 26.157 22.2115 26.157 22.2115 26.157C22.2115 26.157 22.2115 26.157 22.2115 26.157C22.2115 26.157 22.2115 26.157 22.2115 26.157C22.2115 26.157 22.2115 26.157 22.2115 26.157C22.2115 26.157 22.2115 26.157 22.2115 26.157C22.2115 26.157 22.2115 26.157 22.2115 26.157C22.2115 26.157 22.2115 26.157 22.2115 26.157C22.2115 26.157 22.2115 26.157 22.2115 26.157C22.2115 26.157 22.2115 26.157 22.2115 26.157C22.2115 26.157 22.2115 26.157 22.2115 26.157C22.2115 26.157 22.2115 26.157 22.2115 26.157C22.2115 26.157 22.2115 26.157 22.2115 26.157C22.2115 26.157 22.2115 26.157 22.2115 26.157C22.2115 26.157 22.2115 26.157 22.2115 26.157C22.2115 26.157 22.2115 26.157 22.2115 26.157C22.2115 26.157 22.2115 26.157 22.2115 26.157C22.2115 26.157 22.2115 26.157 22.2115 26.157C22.2115 26.157 22.2115 26.157 22.2115 26.157C22.2115 26.157 22.2115 26.157 22.2115 26.157C22.2115 26.157 22.2115 26.157 22.2115 26.157C22.2115 26.157 22.2115 26.157 22.2115 26.157C22.2115 26.157 22.2115 26.157 22.2115 26.157C22.2115 26.157 22.2115 26.157 22.2115 26.157C22.2115 26.157 22.2115 26.157 22.2115 26.157C22.2115 26.157 22.2115 26.157 22.2115 26.157C22.2115 26.157 22.2115 26.157 22.2115 26.157C22.2115 26.157 22.2115 26.157 22.2115 26.157C22.2115 26.157 22.2115 26.157 22.2115 26.157C22.2115 26.157 22.2115 26.157 22.2115 26.157C22.2115 26.157 22.2115 26.157 22.2115 26.157C22.2115 26.157 22.2115 26.157 22.2115 26.157C22.2115 26.157 22.2115 26.157 22.2115 26.157C22.2115 26.157 22.2115 26.157 22.2115 26.157C22.2115 26.157 22.2115 26.157 22.2115 26.157C22.2115 26.157 22.2115 26.157 22.2115 26.157C22.2115 26.157 22.2115 26.157 22.2115 26.157C22.2115 26.157 22.2115 26.157 22.2115 26.157C22.2115 26.157 22.2115 26.157 22.2115 26.157C22.2115 26.157 22.2115 26.157 22.2115 26.157C22.2115 26.157 22.2115 26.157 22.2115 26.157C22.2115 26.157 22.2115 26.157 22.2116 26.157C22.2116 26.157 22.2116 26.157 22.2116 26.157C22.2116 26.157 22.2116 26.157 22.2116 26.157C22.2116 26.157 22.2116 26.157 22.2116 26.157C22.2116 26.157 22.2116 26.157 22.2116 26.157C22.2116 26.157 22.2116 26.157 22.2116 26.157C22.2116 26.157 22.2116 26.157 22.2116 26.157C22.2116 26.157 22.2116 26.157 22.2116 26.157C22.2116 26.157 22.2116 26.157 22.2116 26.157C22.2116 26.157 22.2116 26.157 22.2116 26.157C22.2116 26.157 22.2116 26.157 22.2116 26.157C22.2116 26.157 22.2116 26.157 22.2116 26.157C22.2116 26.157 22.2116 26.157 22.2116 26.157C22.2116 26.157 22.2116 26.157 22.2116 26.157C22.2116 26.157 22.2116 26.157 22.2116 26.157C22.2116 26.157 22.2116 26.157 22.2116 26.157C22.2116 26.157 22.2116 26.157 22.2116 26.157C22.2116 26.157 22.2116 26.157 22.2116 26.157C22.2116 26.157 22.2116 26.157 22.2116 26.157C22.2116 26.157 22.2116 26.157 22.2116 26.157C22.2116 26.157 22.2116 26.157 22.2116 26.157C22.2116 26.157 22.2116 26.157 22.2116 26.157C22.2116 26.157 22.2116 26.157 22.2116 26.157C22.2116 26.157 22.2116 26.157 22.2116 26.157C22.2116 26.157 22.2116 26.157 22.2116 26.157C22.2116 26.157 22.2116 26.157 22.2116 26.157C22.2116 26.157 22.2116 26.157 22.2116 26.157C22.2116 26.157 22.2116 26.157 22.2116 26.157C22.2116 26.157 22.2116 26.157 22.2116 26.157C22.2116 26.157 22.2116 26.157 22.2116 26.157C22.2116 26.157 22.2116 26.157 22.2116 26.157C22.2116 26.157 22.2116 26.157 22.2116 26.157C22.2116 26.157 22.2116 26.157 22.2116 26.157C22.2116 26.157 22.2116 26.157 22.2116 26.157C22.2116 26.157 22.2116 26.157 22.2116 26.157C22.2116 26.157 22.2116 26.157 22.2116 26.157C22.2116 26.157 22.2116 26.157 22.2116 26.157C22.2116 26.157 22.2116 26.157 22.2116 26.157C22.2116 26.157 22.2116 26.157 22.2116 26.157C22.2116 26.157 22.2116 26.157 22.2116 26.157C22.2116 26.157 22.2116 26.157 22.2116 26.157C22.2116 26.157 22.2116 26.157 22.2116 26.157C22.2116 26.157 22.2116 26.157 22.2116 26.157C22.2116 26.157 22.2117 26.157 22.2117 26.157C22.2117 26.157 22.2117 26.157 22.2117 26.157C22.2117 26.157 22.2117 26.157 22.2117 26.157C22.2117 26.157 22.2117 26.157 22.2117 26.157C22.2117 26.157 22.2117 26.157 22.2117 26.157C22.2117 26.157 22.2117 26.157 22.2117 26.157C22.2117 26.157 22.2117 26.157 22.2117 26.157C22.2117 26.157 22.2117 26.157 22.2117 26.157C22.2117 26.157 22.2117 26.157 22.2117 26.157C22.2117 26.157 22.2117 26.157 22.2117 26.157C22.2117 26.157 22.2117 26.157 22.2117 26.157C22.2117 26.157 22.2117 26.157 22.2117 26.157C22.2117 26.157 22.2117 26.157 22.2117 26.157C22.2117 26.157 22.2117 26.157 22.2117 26.157C22.2117 26.157 22.2117 26.157 22.2117 26.157C22.2117 26.157 22.2117 26.157 22.2117 26.157C22.2117 26.157 22.2117 26.157 22.2117 26.157C22.2117 26.157 22.2117 26.157 22.2117 26.157C22.2117 26.157 22.2117 26.157 22.2117 26.157C22.2117 26.157 22.2117 26.157 22.2117 26.157C22.2117 26.157 22.2117 26.157 22.2117 26.157C22.2117 26.157 22.2117 26.157 22.2117 26.157C22.2117 26.157 22.2117 26.157 22.2117 26.157C22.2117 26.157 22.2117 26.157 22.2117 26.157C22.2117 26.157 22.2117 26.157 22.2117 26.157C22.2117 26.157 22.2117 26.157 22.2117 26.157C22.2117 26.157 22.2117 26.157 22.2117 26.157C22.2117 26.157 22.2117 26.157 22.2117 26.157C22.2117 26.157 22.2117 26.157 22.2117 26.157V25.8749Z" fill="url(#paint4_linear_227_4623)" mask="url(#path-2-inside-1_227_4623)"/>
</g>
<g filter="url(#filter1_d_227_4623)">
<path d="M13.6803 13.7256C13.6803 13.1482 14.1484 12.6802 14.7257 12.6802C15.3031 12.6802 15.7712 13.1482 15.7712 13.7256V16.5133H16.024C16.8257 16.5133 17.2266 16.5133 17.4203 16.6745C17.5885 16.8144 17.6813 17.0252 17.6707 17.2438C17.6586 17.4955 17.3878 17.791 16.846 18.382L16.3698 18.9015C15.7993 19.5238 15.5141 19.835 15.1795 19.9502C14.8855 20.0514 14.566 20.0514 14.272 19.9502C13.9374 19.835 13.6522 19.5238 13.0817 18.9015L12.6055 18.382C12.0637 17.791 11.7929 17.4955 11.7808 17.2438C11.7702 17.0252 11.863 16.8144 12.0312 16.6745C12.2249 16.5133 12.6258 16.5133 13.4275 16.5133H13.6803V13.7256Z" fill="#CCF7FF"/>
<path d="M14.7256 12.7671C15.2547 12.7671 15.6833 13.1961 15.6836 13.7251V16.6001H16.0244C16.4268 16.6001 16.7226 16.6009 16.9424 16.6206C17.1644 16.6405 17.2892 16.6793 17.3643 16.7417C17.5115 16.8641 17.5932 17.0485 17.584 17.2397C17.5793 17.3371 17.5229 17.4553 17.3877 17.6323C17.2537 17.8076 17.0541 18.0262 16.7822 18.3228L16.3057 18.8423C16.0194 19.1545 15.8081 19.3853 15.627 19.5522C15.4468 19.7183 15.3022 19.8157 15.1514 19.8677C14.8758 19.9625 14.5763 19.9625 14.3008 19.8677C14.1498 19.8157 14.0046 19.7185 13.8242 19.5522C13.6431 19.3853 13.4317 19.1545 13.1455 18.8423L12.6699 18.3228C12.3979 18.026 12.1975 17.8077 12.0635 17.6323C11.9283 17.4554 11.8729 17.3371 11.8682 17.2397C11.859 17.0485 11.9398 16.8641 12.0869 16.7417C12.1619 16.6793 12.2869 16.6405 12.5088 16.6206C12.7286 16.6009 13.0252 16.6001 13.4277 16.6001H13.7676V13.7261C13.7676 13.1969 14.1964 12.7672 14.7256 12.7671Z" stroke="url(#paint5_linear_227_4623)" stroke-width="0.174235"/>
</g>
<defs>
<filter id="filter0_d_227_4623" x="-0.901073" y="3.46758" width="31.9266" height="24.3661" filterUnits="userSpaceOnUse" color-interpolation-filters="sRGB">
<feFlood flood-opacity="0" result="BackgroundImageFix"/>
<feColorMatrix in="SourceAlpha" type="matrix" values="0 0 0 0 0 0 0 0 0 0 0 0 0 0 0 0 0 0 127 0" result="hardAlpha"/>
<feOffset dx="0.705128"/>
<feGaussianBlur stdDeviation="0.881411"/>
<feColorMatrix type="matrix" values="0 0 0 0 0.00392157 0 0 0 0 0.223529 0 0 0 0 0.470588 0 0 0 0.39739 0"/>
<feBlend mode="normal" in2="BackgroundImageFix" result="effect1_dropShadow_227_4623"/>
<feBlend mode="normal" in="SourceGraphic" in2="effect1_dropShadow_227_4623" result="shape"/>
</filter>
<clipPath id="bgblur_0_227_4623_clip_path" transform="translate(0.901073 -3.46758)"><path fill-rule="evenodd" clip-rule="evenodd" d="M22.2105 25.8749V25.875H7.40283V25.8749C3.89838 25.8744 1.05762 23.0333 1.05762 19.5288C1.05762 16.3763 3.35629 13.7606 6.36898 13.2666C6.68704 8.88345 10.3438 5.42627 14.8081 5.42627C19.2723 5.42627 22.9291 8.8835 23.2471 13.2667C26.2595 13.761 28.5579 16.3765 28.5579 19.5288C28.5579 23.0337 25.7166 25.8749 22.2117 25.8749C22.2113 25.8749 22.2109 25.8749 22.2105 25.8749Z"/>
</clipPath><filter id="filter1_d_227_4623" x="10.3864" y="11.9832" width="8.67936" height="10.1337" filterUnits="userSpaceOnUse" color-interpolation-filters="sRGB">
<feFlood flood-opacity="0" result="BackgroundImageFix"/>
<feColorMatrix in="SourceAlpha" type="matrix" values="0 0 0 0 0 0 0 0 0 0 0 0 0 0 0 0 0 0 127 0" result="hardAlpha"/>
<feOffset dy="0.69694"/>
<feGaussianBlur stdDeviation="0.69694"/>
<feColorMatrix type="matrix" values="0 0 0 0 0.085809 0 0 0 0 0.227148 0 0 0 0 0.433457 0 0 0 0.603327 0"/>
<feBlend mode="normal" in2="BackgroundImageFix" result="effect1_dropShadow_227_4623"/>
<feBlend mode="normal" in="SourceGraphic" in2="effect1_dropShadow_227_4623" result="shape"/>
</filter>
<linearGradient id="paint0_linear_227_4623" x1="18.6413" y1="27.4276" x2="34.7809" y2="12.8657" gradientUnits="userSpaceOnUse">
<stop stop-color="#10ACFF"/>
<stop offset="1" stop-color="#3CE5FF"/>
</linearGradient>
<linearGradient id="paint1_linear_227_4623" x1="11.3604" y1="5.84599" x2="15.0201" y2="21.9856" gradientUnits="userSpaceOnUse">
<stop stop-color="#43EAFE"/>
<stop offset="1" stop-color="#21689F"/>
</linearGradient>
<linearGradient id="paint2_linear_227_4623" x1="-15.9675" y1="15.904" x2="8.09779" y2="45.2931" gradientUnits="userSpaceOnUse">
<stop stop-color="#14B1FF"/>
<stop offset="1" stop-color="#F1FFFC"/>
</linearGradient>
<linearGradient id="paint3_linear_227_4623" x1="23.1016" y1="25.875" x2="23.1016" y2="5.42627" gradientUnits="userSpaceOnUse">
<stop stop-color="#00D9FF" stop-opacity="0.344628"/>
<stop offset="1" stop-color="white" stop-opacity="0.195301"/>
</linearGradient>
<linearGradient id="paint4_linear_227_4623" x1="33.4559" y1="22.2954" x2="27.8878" y2="-0.383384" gradientUnits="userSpaceOnUse">
<stop stop-color="#2C71C5"/>
<stop offset="0.463482" stop-color="#11A5D4"/>
<stop offset="1" stop-color="#45B9E0"/>
</linearGradient>
<linearGradient id="paint5_linear_227_4623" x1="15.7298" y1="19.5347" x2="17.6388" y2="21.5616" gradientUnits="userSpaceOnUse">
<stop stop-color="#C2EDFF"/>
<stop offset="1" stop-color="#5EA9BB" stop-opacity="0.470207"/>
</linearGradient>
</defs>
</svg>
