<svg width="32" height="30" viewBox="0 0 32 30" fill="none" xmlns="http://www.w3.org/2000/svg">
<path d="M11.293 8.48169C10.752 7.5575 9.41599 7.5575 8.875 8.48169L1.41797 21.22C0.871331 22.1538 1.54489 23.3284 2.62695 23.3284H17.541C18.6229 23.3281 19.2966 22.1537 18.75 21.22L11.293 8.48169Z" fill="url(#paint0_linear_227_4573)" stroke="url(#paint1_linear_227_4573)" stroke-width="0.210068"/>
<foreignObject x="3.50521" y="3.85352" width="27.6979" height="24.6465"><div xmlns="http://www.w3.org/1999/xhtml" style="backdrop-filter:blur(0.83px);clip-path:url(#bgblur_0_227_4573_clip_path);height:100%;width:100%"></div></foreignObject><g filter="url(#filter0_d_227_4573)" data-figma-bg-blur-radius="1.66667">
<path fill-rule="evenodd" clip-rule="evenodd" d="M18.5751 6.71305C17.8219 5.40024 15.9281 5.40024 15.1749 6.71305L5.43433 23.6894C4.68458 24.9962 5.62791 26.625 7.13444 26.625H26.6156C28.1221 26.625 29.0654 24.9962 28.3157 23.6894L18.5751 6.71305Z" fill="url(#paint2_linear_227_4573)" style="mix-blend-mode:soft-light"/>
<path fill-rule="evenodd" clip-rule="evenodd" d="M18.5751 6.71305C17.8219 5.40024 15.9281 5.40024 15.1749 6.71305L5.43433 23.6894C4.68458 24.9962 5.62791 26.625 7.13444 26.625H26.6156C28.1221 26.625 29.0654 24.9962 28.3157 23.6894L18.5751 6.71305Z" fill="url(#paint3_linear_227_4573)" fill-opacity="0.3"/>
<path d="M18.4453 6.78809C17.7497 5.57574 16.0003 5.57574 15.3047 6.78809L5.56445 23.7637C4.87208 24.9704 5.74353 26.4746 7.13477 26.4746H26.6152C28.0065 26.4746 28.8779 24.9704 28.1855 23.7637L18.4453 6.78809Z" stroke="url(#paint4_linear_227_4573)" stroke-width="0.3"/>
</g>
<g filter="url(#filter1_d_227_4573)">
<rect x="18.8779" y="10.2612" width="6" height="2.25" rx="1.125" transform="rotate(60 18.8779 10.2612)" fill="#A8CBFF"/>
<rect x="18.8436" y="10.3893" width="5.8125" height="2.0625" rx="1.03125" transform="rotate(60 18.8436 10.3893)" stroke="url(#paint5_linear_227_4573)" stroke-width="0.1875"/>
</g>
<circle cx="11.4375" cy="6.1875" r="1.20747" fill="url(#paint6_linear_227_4573)" stroke="url(#paint7_linear_227_4573)" stroke-width="0.210068"/>
<defs>
<filter id="filter0_d_227_4573" x="3.50521" y="3.85352" width="27.6979" height="24.6465" filterUnits="userSpaceOnUse" color-interpolation-filters="sRGB">
<feFlood flood-opacity="0" result="BackgroundImageFix"/>
<feColorMatrix in="SourceAlpha" type="matrix" values="0 0 0 0 0 0 0 0 0 0 0 0 0 0 0 0 0 0 127 0" result="hardAlpha"/>
<feOffset dx="0.75"/>
<feGaussianBlur stdDeviation="0.9375"/>
<feColorMatrix type="matrix" values="0 0 0 0 0.00392157 0 0 0 0 0.223529 0 0 0 0 0.470588 0 0 0 0.39739 0"/>
<feBlend mode="normal" in2="BackgroundImageFix" result="effect1_dropShadow_227_4573"/>
<feBlend mode="normal" in="SourceGraphic" in2="effect1_dropShadow_227_4573" result="shape"/>
</filter>
<clipPath id="bgblur_0_227_4573_clip_path" transform="translate(-3.50521 -3.85352)"><path fill-rule="evenodd" clip-rule="evenodd" d="M18.5751 6.71305C17.8219 5.40024 15.9281 5.40024 15.1749 6.71305L5.43433 23.6894C4.68458 24.9962 5.62791 26.625 7.13444 26.625H26.6156C28.1221 26.625 29.0654 24.9962 28.3157 23.6894L18.5751 6.71305Z"/>
</clipPath><filter id="filter1_d_227_4573" x="15.8408" y="9.92285" width="7.12598" height="8.49805" filterUnits="userSpaceOnUse" color-interpolation-filters="sRGB">
<feFlood flood-opacity="0" result="BackgroundImageFix"/>
<feColorMatrix in="SourceAlpha" type="matrix" values="0 0 0 0 0 0 0 0 0 0 0 0 0 0 0 0 0 0 127 0" result="hardAlpha"/>
<feOffset dy="0.75"/>
<feGaussianBlur stdDeviation="0.75"/>
<feColorMatrix type="matrix" values="0 0 0 0 0.085809 0 0 0 0 0.227148 0 0 0 0 0.433457 0 0 0 0.603327 0"/>
<feBlend mode="normal" in2="BackgroundImageFix" result="effect1_dropShadow_227_4573"/>
<feBlend mode="normal" in="SourceGraphic" in2="effect1_dropShadow_227_4573" result="shape"/>
</filter>
<linearGradient id="paint0_linear_227_4573" x1="11.0694" y1="31.1951" x2="-6.22151" y2="12.9308" gradientUnits="userSpaceOnUse">
<stop stop-color="#0051CB"/>
<stop offset="1" stop-color="#B3CBFF"/>
</linearGradient>
<linearGradient id="paint1_linear_227_4573" x1="20.167" y1="8.16126" x2="16.7859" y2="25.6177" gradientUnits="userSpaceOnUse">
<stop stop-color="#4D9AFF"/>
<stop offset="1" stop-color="#063FA8"/>
</linearGradient>
<linearGradient id="paint2_linear_227_4573" x1="46.251" y1="15.4709" x2="18.8143" y2="44.0617" gradientUnits="userSpaceOnUse">
<stop stop-color="#14B1FF"/>
<stop offset="1" stop-color="#F1FFFC"/>
</linearGradient>
<linearGradient id="paint3_linear_227_4573" x1="8.95825" y1="26.625" x2="8.95825" y2="3.75" gradientUnits="userSpaceOnUse">
<stop stop-color="#0059FF" stop-opacity="0.344628"/>
<stop offset="1" stop-color="white" stop-opacity="0.195301"/>
</linearGradient>
<linearGradient id="paint4_linear_227_4573" x1="-0.925276" y1="22.6207" x2="6.22269" y2="-2.22156" gradientUnits="userSpaceOnUse">
<stop stop-color="#0053B8"/>
<stop offset="0.463482" stop-color="#5F8FFF"/>
<stop offset="1" stop-color="#001E85"/>
</linearGradient>
<linearGradient id="paint5_linear_227_4573" x1="22.6637" y1="12.1855" x2="22.9893" y2="13.1493" gradientUnits="userSpaceOnUse">
<stop stop-color="#5F8FFF"/>
<stop offset="1" stop-color="#7583EE" stop-opacity="0.470207"/>
</linearGradient>
<linearGradient id="paint6_linear_227_4573" x1="11.3092" y1="8.68273" x2="13.9342" y2="6.31432" gradientUnits="userSpaceOnUse">
<stop stop-color="#0051CB"/>
<stop offset="1" stop-color="#B3CBFF"/>
</linearGradient>
<linearGradient id="paint7_linear_227_4573" x1="10.125" y1="5.17262" x2="10.7202" y2="7.79762" gradientUnits="userSpaceOnUse">
<stop stop-color="#4D9AFF"/>
<stop offset="1" stop-color="#4F85EB"/>
</linearGradient>
</defs>
</svg>
