<svg preserveAspectRatio="none" width="100%" height="100%" overflow="visible" style="display: block;" viewBox="0 0 38 38" fill="none" xmlns="http://www.w3.org/2000/svg">
<path d="M17.1003 20.9V30.4C17.1003 31.4493 17.951 32.3 19.0003 32.3C20.0497 32.3 20.9003 31.4493 20.9003 30.4V20.9H30.4002C31.4495 20.9 32.3002 20.0493 32.3002 19C32.3002 17.9506 31.4495 17.1 30.4002 17.1H20.9003V7.59995C20.9003 6.55061 20.0497 5.69995 19.0003 5.69995C17.951 5.69995 17.1003 6.55061 17.1003 7.59995V17.1H7.60019C6.55085 17.1 5.7002 17.9506 5.7002 19C5.7002 20.0493 6.55085 20.9 7.60019 20.9H17.1003Z" fill="currentColor"/>
</svg>
