<svg preserveAspectRatio="none" width="100%" height="100%" overflow="visible" style="display: block;" viewBox="0 0 14.3248 14.2295" fill="none" xmlns="http://www.w3.org/2000/svg">
<g id="history">
<g id="icon">
<path d="M0.806128 4.14137L0.82535 0.103808L0.125358 0.100475L0.100475 5.32714L5.35047 5.35214L5.3538 4.65215L1.30459 4.63287L2.99203 2.89299C5.3158 0.571236 9.08173 0.571859 11.4047 2.89486C13.7283 5.21848 13.7283 8.98581 11.4047 11.3094C9.08111 13.633 5.31378 13.633 2.99016 11.3094L2.49518 11.8044C5.09217 14.4014 9.30272 14.4014 11.8997 11.8044C14.4967 9.20742 14.4967 4.99687 11.8997 2.39988C9.30272 -0.197105 5.09217 -0.197105 2.49518 2.39988L2.4914 2.40367L0.806128 4.14137Z" fill="currentColor"/>
<path d="M6.62478 3.37952H7.32478V6.73455L10.0223 9.43204L9.52729 9.92701L6.62478 7.0245V3.37952Z" fill="currentColor"/>
<path d="M0.806128 4.14137L0.82535 0.103808L0.125358 0.100475L0.100475 5.32714L5.35047 5.35214L5.3538 4.65215L1.30459 4.63287L2.99203 2.89299C5.3158 0.571236 9.08173 0.571859 11.4047 2.89486C13.7283 5.21848 13.7283 8.98581 11.4047 11.3094C9.08111 13.633 5.31378 13.633 2.99016 11.3094L2.49518 11.8044C5.09217 14.4014 9.30272 14.4014 11.8997 11.8044C14.4967 9.20742 14.4967 4.99687 11.8997 2.39988C9.30272 -0.197105 5.09217 -0.197105 2.49518 2.39988L2.4914 2.40367L0.806128 4.14137Z" stroke="var(--stroke-0, #858B9C)" stroke-width="0.2"/>
<path d="M6.62478 3.37952H7.32478V6.73455L10.0223 9.43204L9.52729 9.92701L6.62478 7.0245V3.37952Z" stroke="var(--stroke-0, #858B9C)" stroke-width="0.2"/>
</g>
</g>
</svg>
