<svg preserveAspectRatio="none" width="100%" height="100%" overflow="visible" style="display: block;" viewBox="0 0 14 14.1" fill="none" xmlns="http://www.w3.org/2000/svg">
<g id="alarm">
<g id="icon">
<path fill-rule="evenodd" clip-rule="evenodd" d="M7 13.3C10.0928 13.3 12.6 10.7928 12.6 7.7C12.6 4.60721 10.0928 2.1 7 2.1C3.90721 2.1 1.4 4.60721 1.4 7.7C1.4 10.7928 3.90721 13.3 7 13.3ZM7 14C10.4794 14 13.3 11.1794 13.3 7.7C13.3 4.22061 10.4794 1.4 7 1.4C3.52061 1.4 0.7 4.22061 0.7 7.7C0.7 11.1794 3.52061 14 7 14Z" fill="currentColor"/>
<path fill-rule="evenodd" clip-rule="evenodd" d="M6.3 8.4V3.85H7V7.71988L8.89657 6.36519L9.30343 6.93481L6.85343 8.68481C6.74675 8.76101 6.60642 8.7712 6.48985 8.71121C6.37327 8.65122 6.3 8.53111 6.3 8.4Z" fill="currentColor"/>
<path fill-rule="evenodd" clip-rule="evenodd" d="M13.0525 3.74749L10.2525 0.947487L10.7475 0.452513L13.5475 3.25251L13.0525 3.74749Z" fill="currentColor"/>
<path fill-rule="evenodd" clip-rule="evenodd" d="M0.947487 3.74749L3.74749 0.947487L3.25251 0.452513L0.452512 3.25251L0.947487 3.74749Z" fill="currentColor"/>
<path d="M6.3 3.85V3.75C6.24477 3.75 6.2 3.79477 6.2 3.85H6.3ZM7 3.85H7.1C7.1 3.79477 7.05523 3.75 7 3.75V3.85ZM7 7.71988H6.9C6.9 7.75734 6.92094 7.79166 6.95424 7.8088C6.98755 7.82594 7.02764 7.82303 7.05812 7.80126L7 7.71988ZM8.89657 6.36519L8.97794 6.30707C8.96253 6.28549 8.93917 6.27091 8.91301 6.26655C8.88685 6.26219 8.86003 6.2684 8.83844 6.28382L8.89657 6.36519ZM9.30343 6.93481L9.36156 7.01618C9.4065 6.98408 9.41691 6.92162 9.38481 6.87668L9.30343 6.93481ZM6.85343 8.68481L6.79531 8.60343V8.60343L6.85343 8.68481ZM6.48985 8.71121L6.44409 8.80013H6.44409L6.48985 8.71121ZM10.2525 0.947487L10.1818 0.876777L10.1111 0.947487L10.1818 1.0182L10.2525 0.947487ZM13.0525 3.74749L12.9818 3.8182L13.0525 3.88891L13.1232 3.8182L13.0525 3.74749ZM10.7475 0.452513L10.8182 0.381802L10.7475 0.311091L10.6768 0.381802L10.7475 0.452513ZM13.5475 3.25251L13.6182 3.32322L13.6889 3.25251L13.6182 3.1818L13.5475 3.25251ZM3.74749 0.947487L3.8182 1.0182L3.88891 0.947487L3.8182 0.876777L3.74749 0.947487ZM0.947487 3.74749L0.876777 3.8182L0.947487 3.88891L1.0182 3.8182L0.947487 3.74749ZM3.25251 0.452513L3.32322 0.381802L3.25251 0.311091L3.1818 0.381802L3.25251 0.452513ZM0.452512 3.25251L0.381802 3.1818L0.311091 3.25251L0.381802 3.32322L0.452512 3.25251ZM12.6 7.7H12.5C12.5 10.7376 10.0376 13.2 7 13.2V13.3V13.4C10.148 13.4 12.7 10.848 12.7 7.7H12.6ZM7 2.1V2.2C10.0376 2.2 12.5 4.66243 12.5 7.7H12.6H12.7C12.7 4.55198 10.148 2 7 2V2.1ZM1.4 7.7H1.5C1.5 4.66243 3.96243 2.2 7 2.2V2.1V2C3.85198 2 1.3 4.55198 1.3 7.7H1.4ZM7 13.3V13.2C3.96243 13.2 1.5 10.7376 1.5 7.7H1.4H1.3C1.3 10.848 3.85198 13.4 7 13.4V13.3ZM13.3 7.7H13.2C13.2 11.1242 10.4242 13.9 7 13.9V14V14.1C10.5346 14.1 13.4 11.2346 13.4 7.7H13.3ZM7 1.4V1.5C10.4242 1.5 13.2 4.27583 13.2 7.7H13.3H13.4C13.4 4.16538 10.5346 1.3 7 1.3V1.4ZM0.7 7.7H0.8C0.8 4.27583 3.57583 1.5 7 1.5V1.4V1.3C3.46538 1.3 0.6 4.16538 0.6 7.7H0.7ZM7 14V13.9C3.57583 13.9 0.8 11.1242 0.8 7.7H0.7H0.6C0.6 11.2346 3.46538 14.1 7 14.1V14ZM6.3 3.85H6.2V8.4H6.3H6.4V3.85H6.3ZM7 3.85V3.75H6.3V3.85V3.95H7V3.85ZM7 7.71988H7.1V3.85H7H6.9V7.71988H7ZM8.89657 6.36519L8.83844 6.28382L6.94188 7.63851L7 7.71988L7.05812 7.80126L8.95469 6.44657L8.89657 6.36519ZM9.30343 6.93481L9.38481 6.87668L8.97794 6.30707L8.89657 6.36519L8.81519 6.42332L9.22206 6.99293L9.30343 6.93481ZM6.85343 8.68481L6.91156 8.76618L9.36156 7.01618L9.30343 6.93481L9.24531 6.85343L6.79531 8.60343L6.85343 8.68481ZM6.48985 8.71121L6.44409 8.80013C6.59397 8.87726 6.77439 8.86416 6.91156 8.76618L6.85343 8.68481L6.79531 8.60343C6.71911 8.65787 6.61887 8.66514 6.5356 8.62229L6.48985 8.71121ZM6.3 8.4H6.2C6.2 8.56857 6.29421 8.72299 6.44409 8.80013L6.48985 8.71121L6.53561 8.62229C6.45234 8.57944 6.4 8.49365 6.4 8.4H6.3ZM10.2525 0.947487L10.1818 1.0182L12.9818 3.8182L13.0525 3.74749L13.1232 3.67678L10.3232 0.876777L10.2525 0.947487ZM10.7475 0.452513L10.6768 0.381802L10.1818 0.876777L10.2525 0.947487L10.3232 1.0182L10.8182 0.523223L10.7475 0.452513ZM13.5475 3.25251L13.6182 3.1818L10.8182 0.381802L10.7475 0.452513L10.6768 0.523223L13.4768 3.32322L13.5475 3.25251ZM13.0525 3.74749L13.1232 3.8182L13.6182 3.32322L13.5475 3.25251L13.4768 3.1818L12.9818 3.67678L13.0525 3.74749ZM3.74749 0.947487L3.67678 0.876777L0.876777 3.67678L0.947487 3.74749L1.0182 3.8182L3.8182 1.0182L3.74749 0.947487ZM3.25251 0.452513L3.1818 0.523223L3.67678 1.0182L3.74749 0.947487L3.8182 0.876777L3.32322 0.381802L3.25251 0.452513ZM0.452512 3.25251L0.523223 3.32322L3.32322 0.523223L3.25251 0.452513L3.1818 0.381802L0.381802 3.1818L0.452512 3.25251ZM0.947487 3.74749L1.0182 3.67678L0.523223 3.1818L0.452512 3.25251L0.381802 3.32322L0.876777 3.8182L0.947487 3.74749Z" fill="currentColor"/>
</g>
</g>
</svg>
