<svg width="14" height="14" viewBox="0 0 14 14" fill="none" xmlns="http://www.w3.org/2000/svg">
<path fill-rule="evenodd" clip-rule="evenodd" d="M9.94121 4.04868L11.0815 5.31483H8.11113V5.87038H12V2H11.4445V4.88765L10.3442 3.66602L10.3391 3.66089C8.49495 1.81674 5.505 1.81674 3.66085 3.66089C2.73884 4.5829 2.27775 5.7919 2.27774 6.99999L2.8333 6.99999C2.83331 5.93322 3.24005 4.86737 4.05369 4.05373C5.6792 2.42822 8.31362 2.42654 9.94121 4.04868Z" fill="currentColor" stroke="currentColor" stroke-width="0.2"/>
<path fill-rule="evenodd" clip-rule="evenodd" d="M9.94626 9.9463C10.7599 9.13264 11.1667 8.06677 11.1667 6.99999L11.7222 6.99999C11.7222 8.20809 11.2611 9.41711 10.3391 10.3391C8.49495 12.1833 5.505 12.1833 3.66085 10.3391L3.65572 10.334L2.55556 9.11244V12H2V8.12964H5.8889V8.6852H2.91843L4.05874 9.95134C5.68634 11.5735 8.32076 11.5718 9.94626 9.9463Z" fill="currentColor" stroke="currentColor" stroke-width="0.2"/>
</svg>
