<svg preserveAspectRatio="none" width="100%" height="100%" overflow="visible" style="display: block;" viewBox="0 0 20 20" fill="none" xmlns="http://www.w3.org/2000/svg">
<path fill-rule="evenodd" clip-rule="evenodd" d="M9.90026 4C13.1587 4 15.8003 6.64152 15.8003 9.9C15.8003 11.551 15.1228 13.0429 14.0294 14.1143C12.9647 15.1576 11.508 15.8 9.90026 15.8C6.64178 15.8 4.00026 13.1585 4.00026 9.9C4.00026 6.64152 6.64178 4 9.90026 4ZM16.8003 9.9C16.8003 6.08924 13.711 3 9.90026 3C6.0895 3 3.00027 6.08924 3.00027 9.9C3.00027 13.7108 6.0895 16.8 9.90026 16.8C11.6035 16.8 13.1632 16.1823 14.3666 15.1596L16.8003 17.5L17.3506 17L15.08 14.4587C16.1503 13.2433 16.8003 11.6472 16.8003 9.9Z" fill="currentColor"/>
</svg>
