<svg width="16" height="16" viewBox="0 0 16 16" fill="none" xmlns="http://www.w3.org/2000/svg">
<path fill-rule="evenodd" clip-rule="evenodd" d="M16 8C16 3.5888 12.4112 0 8 0C3.5888 0 0 3.5888 0 8C0 12.4112 3.5888 16 8 16C12.4112 16 16 12.4112 16 8ZM10.5867 4.51748C10.7808 4.47426 10.9842 4.50999 11.152 4.6168C11.3199 4.72347 11.4385 4.89249 11.4817 5.08665C11.5249 5.28082 11.4892 5.48419 11.3824 5.652L7.8824 11.152C7.76059 11.3441 7.55807 11.4704 7.33196 11.4953C7.10585 11.5202 6.88069 11.441 6.72 11.28L4.72 9.28C4.52656 9.09137 4.4496 8.81323 4.51857 8.55199C4.58754 8.29075 4.79175 8.08684 5.0531 8.01827C5.31444 7.9497 5.59246 8.02708 5.7808 8.2208L7.12 9.56L10.1168 4.8472C10.2235 4.67931 10.3925 4.56069 10.5867 4.51748Z" fill="currentColor"/>
</svg>
