<svg width="14" height="14" viewBox="0 0 14 14" fill="none" xmlns="http://www.w3.org/2000/svg">
  <path fill-rule="evenodd" clip-rule="evenodd" d="M7.34395 6.65627H12.5002V2.87501C12.5002 2.49531 12.1924 2.1875 11.8127 2.1875H7.34395V6.65627ZM6.65644 6.65627V2.1875H2.18767C1.80798 2.1875 1.50017 2.49531 1.50017 2.87501V6.65627H6.65644ZM1.50017 7.34378H6.65644V11.8125H2.18767C1.80798 11.8125 1.50017 11.5047 1.50017 11.125V7.34378ZM0.812668 2.87501C0.812668 2.11561 1.42828 1.5 2.18767 1.5H11.8127C12.5721 1.5 13.1877 2.11561 13.1877 2.87501V11.125C13.1877 11.8844 12.5721 12.5 11.8127 12.5H2.18767C1.42828 12.5 0.812668 11.8844 0.812668 11.125V2.87501ZM7.34395 11.8125V7.34378H12.5002V11.125C12.5002 11.5047 12.1924 11.8125 11.8127 11.8125H7.34395Z" fill="currentColor" stroke="currentColor" stroke-width="0.196429"/>
</svg>
