<svg width="14" height="14" viewBox="0 0 14 14" fill="none" xmlns="http://www.w3.org/2000/svg">
<path d="M7.49414 1.8833C7.82306 1.66397 8.24912 1.65294 8.58887 1.85498C8.92841 2.05706 9.12152 2.43604 9.08594 2.82959L8.89062 4.72607C8.90293 4.7275 8.91551 4.7292 8.92773 4.73096H8.92676C10.8016 4.88531 12.2754 6.45592 12.2754 8.37061C12.2753 10.2853 10.8435 11.8223 9.00684 12.0142L8.92578 12.02L8.92676 12.021C8.89614 12.0253 8.86538 12.0258 8.83594 12.0249C8.80574 12.0239 8.7781 12.022 8.74902 12.022H4.99902C4.29414 12.022 3.72266 11.4505 3.72266 10.7456V5.58643L3.73535 5.4126C3.7637 5.19588 3.85676 4.86811 4.16406 4.604L4.65332 4.1958C5.597 3.4222 6.54339 2.65173 7.49219 1.88428L7.49414 1.8833ZM8.1875 2.55127C8.11885 2.50594 8.0305 2.50165 7.95801 2.54053L5.32715 4.68213L5.04883 4.91064L4.68652 5.21338C4.65058 5.24392 4.61987 5.28018 4.5957 5.3208C4.55019 5.39757 4.5309 5.47511 4.52637 5.5708L4.52539 10.7456L4.53516 10.8413C4.57943 11.057 4.7702 11.2192 4.99902 11.2192H8.77246L8.84863 11.2222V11.2231L8.93359 11.2153C10.3655 11.0606 11.4726 9.83435 11.4727 8.37061C11.4727 6.90692 10.3307 5.65132 8.86035 5.53076H8.85938L8.74805 5.51807H8.74707C8.3372 5.45632 8.04858 5.0837 8.09082 4.67139L8.28711 2.75732L8.28418 2.69678C8.27327 2.63802 8.2387 2.58525 8.1875 2.55127Z" fill="currentColor" stroke="currentColor" stroke-width="0.0525022"/>
<path d="M2.125 4.96875C2.254 4.96875 2.35564 5.00115 2.4248 5.07031C2.49397 5.13948 2.52637 5.24111 2.52637 5.37012V11.3701C2.52637 11.4992 2.49394 11.6008 2.4248 11.6699C2.35565 11.7391 2.25407 11.7715 2.125 11.7715C1.99593 11.7715 1.89435 11.7391 1.8252 11.6699C1.75606 11.6008 1.72363 11.4992 1.72363 11.3701V5.37012C1.72363 5.24106 1.75604 5.13946 1.8252 5.07031C1.89437 5.00116 1.996 4.96875 2.125 4.96875Z" fill="currentColor" stroke="currentColor" stroke-width="0.0525022"/>
</svg>
