<svg width="14" height="14" viewBox="0 0 14 14" fill="none" xmlns="http://www.w3.org/2000/svg">
<path d="M7.49512 12.1167C7.82404 12.336 8.2501 12.3471 8.58984 12.145C8.92938 11.9429 9.1225 11.564 9.08691 11.1704L8.8916 9.27393C8.9039 9.2725 8.91649 9.2708 8.92871 9.26904H8.92773C10.8026 9.11469 12.2764 7.54408 12.2764 5.62939C12.2762 3.71469 10.8445 2.17766 9.00781 1.98584L8.92676 1.97998L8.92773 1.979C8.89712 1.97468 8.86636 1.97415 8.83691 1.9751C8.80672 1.97607 8.77908 1.97803 8.75 1.97803H5C4.29512 1.97803 3.72364 2.54951 3.72363 3.25439L3.72363 8.41357L3.73633 8.5874C3.76468 8.80412 3.85773 9.13189 4.16504 9.396L4.6543 9.8042C5.59797 10.5778 6.54436 11.3483 7.49316 12.1157L7.49512 12.1167ZM8.18848 11.4487C8.11983 11.4941 8.03148 11.4983 7.95898 11.4595L5.32812 9.31787L5.0498 9.08936L4.6875 8.78662C4.65156 8.75608 4.62085 8.71982 4.59668 8.6792C4.55117 8.60243 4.53188 8.52489 4.52734 8.4292L4.52637 3.25439L4.53613 3.15869C4.58041 2.94297 4.77117 2.78076 5 2.78076H8.77344L8.84961 2.77783V2.77686L8.93457 2.78467C10.3665 2.93942 11.4736 4.16565 11.4736 5.62939C11.4736 7.09308 10.3317 8.34868 8.86133 8.46924H8.86035L8.74902 8.48193H8.74805C8.33818 8.54368 8.04956 8.9163 8.0918 9.32861L8.28809 11.2427L8.28516 11.3032C8.27424 11.362 8.23968 11.4147 8.18848 11.4487Z" fill="currentColor" stroke="currentColor" stroke-width="0.0525022"/>
<path d="M2.125 9.03125C2.254 9.03125 2.35564 8.99885 2.4248 8.92969C2.49397 8.86052 2.52637 8.75889 2.52637 8.62988L2.52637 2.62988C2.52637 2.50083 2.49394 2.39923 2.4248 2.33008C2.35565 2.26092 2.25407 2.22852 2.125 2.22852C1.99593 2.22852 1.89435 2.26092 1.8252 2.33008C1.75606 2.39923 1.72363 2.50083 1.72363 2.62988L1.72363 8.62988C1.72363 8.75894 1.75604 8.86054 1.8252 8.92969C1.89437 8.99884 1.996 9.03125 2.125 9.03125Z" fill="currentColor" stroke="currentColor" stroke-width="0.0525022"/>
</svg>
