<svg width="16" height="16" viewBox="0 0 16 16" fill="none" xmlns="http://www.w3.org/2000/svg">
<path d="M8.66743 10.6664C8.66743 10.2982 8.96589 9.99974 9.33407 9.99974H13.3339C13.7021 9.99974 14.0006 10.2982 14.0006 10.6664V13.333C14.0006 13.7011 13.7021 13.9996 13.3339 13.9996H9.33407C8.96589 13.9996 8.66743 13.7011 8.66743 13.333V10.6664Z" fill="currentColor"/>
<path d="M8.66743 2.66665C8.66743 2.29847 8.96589 2 9.33407 2H13.3339C13.7021 2 14.0006 2.29847 14.0006 2.66664V7.9998C14.0006 8.36798 13.7021 8.66645 13.3339 8.66645H9.33407C8.96589 8.66645 8.66743 8.36798 8.66743 7.9998V2.66665Z" fill="currentColor"/>
<path d="M2.00098 7.9998C2.00098 7.63163 2.29944 7.33316 2.66762 7.33316H6.66749C7.03567 7.33316 7.33414 7.63163 7.33414 7.9998V13.333C7.33414 13.7011 7.03567 13.9996 6.66749 13.9996H2.66762C2.29944 13.9996 2.00098 13.7011 2.00098 13.333V7.9998Z" fill="currentColor"/>
<path d="M2.00098 2.66665C2.00098 2.29847 2.29944 2 2.66762 2H6.66749C7.03567 2 7.33414 2.29847 7.33414 2.66664V5.33322C7.33414 5.7014 7.03567 5.99987 6.66749 5.99987H2.66762C2.29944 5.99987 2.00098 5.7014 2.00098 5.33322V2.66665Z" fill="currentColor"/>
</svg>
