<svg width="16" height="16" viewBox="0 0 16 16" fill="none" xmlns="http://www.w3.org/2000/svg">
<path fill-rule="evenodd" clip-rule="evenodd" d="M8 0C12.4183 0 16 3.58172 16 8C16 12.4183 12.4183 16 8 16C3.58172 16 0 12.4183 0 8C0 3.58172 3.58172 0 8 0ZM8 10.1338C7.4109 10.1338 6.93359 10.6114 6.93359 11.2012C6.9336 11.7909 7.4109 12.2686 8 12.2686C8.5891 12.2686 9.0664 11.7909 9.06641 11.2012C9.06641 10.6114 8.5891 10.1338 8 10.1338ZM7.94727 4.2666C7.52586 4.2666 7.18359 4.62519 7.18359 5.06738V8.09766C7.18364 8.5398 7.52589 8.89844 7.94727 8.89844C8.36853 8.8983 8.70991 8.53972 8.70996 8.09766V5.06738C8.70996 4.62527 8.36856 4.26674 7.94727 4.2666Z" fill="currentColor"/>
</svg>
