<svg width="14" height="14" viewBox="0 0 14 14" fill="none" xmlns="http://www.w3.org/2000/svg">
<path d="M7.01676 1.63334C4.04358 1.63334 1.63334 4.04358 1.63334 7.01676C1.63334 9.98994 4.04358 12.4002 7.01676 12.4002V13.0335C3.6938 13.0335 1 10.3397 1 7.01676C1 3.6938 3.6938 1 7.01676 1C10.3397 1 13.0335 3.6938 13.0335 7.01676H12.4002C12.4002 4.04358 9.98994 1.63334 7.01676 1.63334Z" fill="#858B9C"/>
<path d="M8.60013 9.04797L6.79285 7.24069L7.24069 6.79285L9.04797 8.60013H12.0835V9.23347H9.68131L10.948 10.5002H13.3502V11.1335H11.5813L12.6241 12.1763L12.1763 12.6241L11.1335 11.5813V13.3502H10.5002V10.948L9.23347 9.68131V12.0835H8.60013V9.04797Z" fill="#858B9C"/>
<path d="M4.16672 7.01676C4.16672 5.44273 5.44273 4.16672 7.01676 4.16672C8.5908 4.16672 9.86681 5.44273 9.86681 7.01676H10.5002C10.5002 5.09294 8.94058 3.53337 7.01676 3.53337C5.09294 3.53337 3.53337 5.09294 3.53337 7.01676C3.53337 8.94058 5.09294 10.5002 7.01676 10.5002V9.86681C5.44273 9.86681 4.16672 8.5908 4.16672 7.01676Z" fill="#858B9C"/>
<path d="M7.01676 1.63334C4.04358 1.63334 1.63334 4.04358 1.63334 7.01676C1.63334 9.98994 4.04358 12.4002 7.01676 12.4002V13.0335C3.6938 13.0335 1 10.3397 1 7.01676C1 3.6938 3.6938 1 7.01676 1C10.3397 1 13.0335 3.6938 13.0335 7.01676H12.4002C12.4002 4.04358 9.98994 1.63334 7.01676 1.63334Z" stroke="#858B9C" stroke-width="0.2"/>
<path d="M8.60013 9.04797L6.79285 7.24069L7.24069 6.79285L9.04797 8.60013H12.0835V9.23347H9.68131L10.948 10.5002H13.3502V11.1335H11.5813L12.6241 12.1763L12.1763 12.6241L11.1335 11.5813V13.3502H10.5002V10.948L9.23347 9.68131V12.0835H8.60013V9.04797Z" stroke="#858B9C" stroke-width="0.2"/>
<path d="M4.16672 7.01676C4.16672 5.44273 5.44273 4.16672 7.01676 4.16672C8.5908 4.16672 9.86681 5.44273 9.86681 7.01676H10.5002C10.5002 5.09294 8.94058 3.53337 7.01676 3.53337C5.09294 3.53337 3.53337 5.09294 3.53337 7.01676C3.53337 8.94058 5.09294 10.5002 7.01676 10.5002V9.86681C5.44273 9.86681 4.16672 8.5908 4.16672 7.01676Z" stroke="#858B9C" stroke-width="0.2"/>
</svg>
