<svg width="14" height="14" viewBox="0 0 14 14" fill="none" xmlns="http://www.w3.org/2000/svg">
<path d="M10.1001 9.17036H7V8.55034H10.1001V9.17036Z" fill="#858B9C"/>
<path fill-rule="evenodd" clip-rule="evenodd" d="M0.799805 3.28018C0.799805 2.93775 1.0774 2.66016 1.41982 2.66016H12.5802C12.9226 2.66016 13.2002 2.93775 13.2002 3.28018V10.7204C13.2002 11.0628 12.9226 11.3404 12.5802 11.3404H1.41982C1.0774 11.3404 0.799805 11.0628 0.799805 10.7204V3.28018ZM1.41982 3.28018H12.5802V10.7204H1.41982V3.28018Z" fill="#858B9C"/>
<path d="M10.1001 9.17036H7V8.55034H10.1001V9.17036Z" stroke="#858B9C" stroke-width="0.2"/>
<path fill-rule="evenodd" clip-rule="evenodd" d="M0.799805 3.28018C0.799805 2.93775 1.0774 2.66016 1.41982 2.66016H12.5802C12.9226 2.66016 13.2002 2.93775 13.2002 3.28018V10.7204C13.2002 11.0628 12.9226 11.3404 12.5802 11.3404H1.41982C1.0774 11.3404 0.799805 11.0628 0.799805 10.7204V3.28018ZM1.41982 3.28018H12.5802V10.7204H1.41982V3.28018Z" stroke="#858B9C" stroke-width="0.2"/>
<path d="M3.15039 5.6001L4.90039 7.3501L3.15039 9.1001" stroke="#858B9C" stroke-width="0.7"/>
</svg>
