<svg width="14" height="14" viewBox="0 0 14 14" fill="none" xmlns="http://www.w3.org/2000/svg">
<path d="M10.8351 1.48486H2.82619C2.47445 1.48486 2.13719 1.62467 1.88838 1.87324C1.63957 2.12205 1.5 2.45932 1.5 2.81105V10.82C1.5 11.172 1.63957 11.5095 1.88815 11.7583C2.13695 12.0071 2.47422 12.1471 2.82619 12.1471H7.71106C7.9734 12.1355 8.17996 11.9193 8.17996 11.6568C8.17996 11.3942 7.9734 11.1783 7.71106 11.1666H2.82619C2.73446 11.1666 2.64647 11.13 2.58158 11.0648C2.5167 10.9997 2.48029 10.9117 2.48052 10.82V2.81152C2.48052 2.62036 2.6355 2.46585 2.82619 2.46538H10.8351C11.0265 2.46538 11.1813 2.62036 11.1813 2.81105V3.34694C11.1813 3.61769 11.4007 3.83709 11.6714 3.83709C11.9422 3.83709 12.1616 3.61769 12.1616 3.34694V2.81105C12.1613 2.0784 11.5676 1.48486 10.8349 1.48486H10.8351ZM11.0018 10.8223C10.989 11.4514 10.4752 11.9546 9.84599 11.9546C9.21673 11.9546 8.70325 11.4514 8.69018 10.8223H11.0018ZM9.84575 4.13281C11.3043 4.13234 12.4869 5.31429 12.5 6.77678V6.78005C12.5 7.40814 12.1989 7.91649 11.9494 8.34501C11.6866 8.79548 11.4567 9.19156 11.3993 9.69314H11.3983C11.3659 10.039 11.0814 10.307 10.7341 10.3182H8.98823C8.6407 10.3079 8.35525 10.0409 8.32141 9.69501C8.26259 9.18759 8.03595 8.82722 7.76941 8.39683C7.50917 7.97507 7.20668 7.48002 7.19291 6.78775V6.77655C7.20574 5.31499 8.38676 4.13304 9.84482 4.13257V4.13211H9.84575V4.13257V4.13281ZM4.17969 8.94416C4.52606 8.94416 4.80684 9.22494 4.80684 9.57107C4.80684 9.91721 4.52606 10.1982 4.17969 10.1982C3.83332 10.1982 3.55277 9.91744 3.55277 9.57107C3.55277 9.2247 3.83355 8.94416 4.17969 8.94416ZM9.84529 4.90607C8.81925 4.90607 7.97924 5.73861 7.96663 6.77725C7.97644 7.23472 8.16759 7.56802 8.42784 7.98978C8.67594 8.39076 8.9887 8.8732 9.08136 9.544H10.6384C10.7287 8.88721 11.0356 8.37535 11.2807 7.9557C11.5449 7.5022 11.7244 7.1703 11.7258 6.78449L11.7223 6.68739C11.6635 5.69007 10.8419 4.90584 9.84459 4.9063H9.84505L9.84529 4.90607ZM4.17969 6.2542C4.40375 6.2542 4.61078 6.3737 4.72281 6.56766C4.83485 6.76161 4.83485 7.00085 4.72281 7.19481C4.61078 7.38876 4.40375 7.50827 4.17969 7.50827C3.83355 7.50827 3.55277 7.22748 3.55277 6.88112C3.55277 6.53475 3.83355 6.25396 4.17969 6.25396V6.2542ZM9.84622 5.42469C10.06 5.42469 10.2334 5.59811 10.2334 5.81167C10.2334 6.02523 10.06 6.19888 9.84622 6.19888C9.50125 6.19888 9.2207 6.47826 9.2207 6.82393C9.2102 7.03003 9.04028 7.19177 8.83396 7.19177C8.62763 7.19177 8.45748 7.03003 8.44721 6.82393C8.44721 6.45282 8.59449 6.09689 8.85683 5.83431C9.11917 5.57196 9.47534 5.42445 9.84622 5.42469ZM4.17969 3.56354C4.40795 3.55724 4.62175 3.67534 4.73775 3.87186C4.85375 4.06862 4.85375 4.31276 4.73775 4.50952C4.62175 4.70628 4.40795 4.82438 4.17969 4.81784C3.83309 4.81784 3.55207 4.53683 3.55207 4.19022C3.55207 3.84362 3.83309 3.56261 4.17969 3.56261V3.56307V3.56354Z" fill="#858B9C"/>
</svg>
