<svg width="14" height="14" viewBox="0 0 14 14" fill="none" xmlns="http://www.w3.org/2000/svg">
<path d="M9.9415 4.04876L11.0819 5.31495H8.11135V5.87053H12.0004V2H11.4448V4.88775L10.3445 3.66608L10.3394 3.66095C8.49519 1.81674 5.50513 1.81674 3.66092 3.66095C2.73887 4.583 2.27776 5.79204 2.27775 7.00017L2.83333 7.00018C2.83334 5.93337 3.24009 4.86748 4.05377 4.0538C5.67933 2.42824 8.31385 2.42656 9.9415 4.04876Z" fill="#858B9C"/>
<path d="M9.94655 9.94659C10.7602 9.13291 11.167 8.067 11.167 7.00018L11.7226 7.00017C11.7226 8.20832 11.2615 9.41738 10.3394 10.3394C8.49519 12.1837 5.50513 12.1837 3.66092 10.3394L3.65578 10.3343L2.55558 9.1127V12.0004H2V8.12986H5.88904V8.68544H2.91846L4.05882 9.95163C5.68647 11.5738 8.32099 11.5722 9.94655 9.94659Z" fill="#858B9C"/>
<path d="M9.9415 4.04876L11.0819 5.31495H8.11135V5.87053H12.0004V2H11.4448V4.88775L10.3445 3.66608L10.3394 3.66095C8.49519 1.81674 5.50513 1.81674 3.66092 3.66095C2.73887 4.583 2.27776 5.79204 2.27775 7.00017L2.83333 7.00018C2.83334 5.93337 3.24009 4.86748 4.05377 4.0538C5.67933 2.42824 8.31385 2.42656 9.9415 4.04876Z" stroke="#858B9C" stroke-width="0.2"/>
<path d="M9.94655 9.94659C10.7602 9.13291 11.167 8.067 11.167 7.00018L11.7226 7.00017C11.7226 8.20832 11.2615 9.41738 10.3394 10.3394C8.49519 12.1837 5.50513 12.1837 3.66092 10.3394L3.65578 10.3343L2.55558 9.1127V12.0004H2V8.12986H5.88904V8.68544H2.91846L4.05882 9.95163C5.68647 11.5738 8.32099 11.5722 9.94655 9.94659Z" stroke="#858B9C" stroke-width="0.2"/>
</svg>
