<svg width="14" height="14" viewBox="0 0 14 14" fill="none" xmlns="http://www.w3.org/2000/svg">
<path fill-rule="evenodd" clip-rule="evenodd" d="M4.9 6.7H9.27574L7.38787 4.81213L7.81213 4.38787L10.4243 7L7.81213 9.61213L7.38787 9.18787L9.27574 7.3H5.5V11.1703L6.55097 12.2132C6.79883 12.4623 7.20119 12.4623 7.44904 12.2132L12.227 7.41113L12.242 7.39794C12.4359 7.22738 12.4792 6.84235 12.2129 6.57471L7.44904 1.78683C7.20119 1.53772 6.79882 1.53772 6.55097 1.78683L6.12563 1.36364C6.60805 0.878788 7.39196 0.878788 7.87437 1.36364L12.6382 6.15151C13.1206 6.63636 13.1206 7.42425 12.6382 7.84849L7.87437 12.6364C7.39196 13.1212 6.60805 13.1212 6.12563 12.6364L1.36181 7.90908C0.879397 7.42424 0.879397 6.63636 1.36181 6.15151L6.12563 1.36364L6.55097 1.78683L1.78714 6.57471C1.538 6.82511 1.53762 7.23387 1.78601 7.48475C1.78638 7.48513 1.78676 7.48551 1.78714 7.48589L4.9 10.5749V6.7Z" fill="#858B9C"/>
<path d="M6.55097 1.78683C6.79882 1.53772 7.20119 1.53772 7.44904 1.78683L12.2129 6.57471C12.4792 6.84235 12.4359 7.22738 12.242 7.39794L12.227 7.41113L7.44904 12.2132C7.20119 12.4623 6.79883 12.4623 6.55097 12.2132L5.5 11.1703V7.3H9.27574L7.38787 9.18787L7.81213 9.61213L10.4243 7L7.81213 4.38787L7.38787 4.81213L9.27574 6.7H4.9V10.5749L1.78714 7.48589C1.78676 7.48551 1.78638 7.48513 1.78601 7.48475C1.53762 7.23387 1.538 6.82511 1.78714 6.57471L6.55097 1.78683ZM7.44904 1.78683L7.87248 1.36552M6.55097 1.78683L6.12563 1.36364M6.12563 1.36364C6.60805 0.878788 7.39196 0.878788 7.87437 1.36364L12.6382 6.15151C13.1206 6.63636 13.1206 7.42425 12.6382 7.84849L7.87437 12.6364C7.39196 13.1212 6.60805 13.1212 6.12563 12.6364L1.36181 7.90908C0.879397 7.42424 0.879397 6.63636 1.36181 6.15151L6.12563 1.36364Z" stroke="#858B9C" stroke-width="0.2"/>
</svg>
