<svg width="14" height="14" viewBox="0 0 14 14" fill="none" xmlns="http://www.w3.org/2000/svg">
<path d="M2.71434 13.0001C2.62863 13.0001 2.57154 12.9715 2.51429 12.9144L1.08576 11.4859C0.971414 11.3715 0.971414 11.2001 1.08576 11.0857L5.91443 6.25708C5.68591 5.77141 5.57157 5.25712 5.57157 4.71421C5.57157 2.65721 7.22878 1 9.28577 1C9.88578 1 10.4858 1.14297 11.0287 1.42858C11.1144 1.4572 11.1715 1.54275 11.1715 1.62847C11.1715 1.71418 11.1429 1.7999 11.0858 1.88561L9.11434 3.85706L10.1429 4.88564L12.1144 2.91419C12.1715 2.8571 12.2572 2.82848 12.3715 2.82848C12.4572 2.82848 12.5429 2.88556 12.5714 2.97128C12.8572 3.5142 13 4.11403 13 4.71421C13 6.77137 11.3428 8.42858 9.28561 8.42858C8.74269 8.42858 8.2284 8.31424 7.74274 8.08572L2.9144 12.9144C2.85731 12.9715 2.80006 13.0001 2.71434 13.0001ZM1.68576 11.2858L2.71434 12.3144L7.48592 7.54297C7.57164 7.45725 7.71444 7.42863 7.82878 7.48588C8.28582 7.7144 8.80028 7.85737 9.28594 7.85737C11.0289 7.85737 12.4288 6.4573 12.4288 4.71437C12.4288 4.34289 12.3717 3.97157 12.2287 3.60008L10.343 5.48581C10.2288 5.60015 10.0572 5.60015 9.94303 5.48581L8.51434 4.05728C8.40016 3.94294 8.40016 3.77151 8.51434 3.65733L10.4001 1.7716C10.0287 1.6288 9.65726 1.57155 9.28577 1.57155C7.54284 1.57155 6.14294 2.97161 6.14294 4.71437C6.14294 5.22866 6.25729 5.74295 6.51443 6.17153C6.57152 6.28587 6.54306 6.42867 6.45734 6.51439L1.68576 11.2858Z" fill="#858B9C" stroke="#858B9C" stroke-width="0.2"/>
</svg>
