<?xml version="1.0" encoding="UTF-8"?>
<svg xmlns="http://www.w3.org/2000/svg" version="1.1" viewBox="0 0 310 110">
  <defs>
    <style>
      .cls-1 {
        font-family: AgencyRegular, Agency;
        font-size: 38.32px;
      }

      .cls-2 {
        fill: #b7b7b7;
      }
    </style>
  </defs>
  <!-- Generator: Adobe Illustrator 28.6.0, SVG Export Plug-In . SVG Version: 1.2.0 Build 709) -->
  <g>
    <g id="_图层_1" data-name="图层_1">
      <!-- 图标组 -->
      <g>
        <!-- 图标细节路径 - 描边绘制动画 -->
        <path d="M109.81,39.29l-13.7,19.73,11.94,17.16c2.68-6.43,4.16-13.48,4.16-20.87,0-5.58-.84-10.96-2.41-16.02Z" opacity="0">
          <animate attributeName="opacity" from="0" to="1" dur="0.6s" begin="1.8s" fill="freeze"/>
        </path>
        <!-- 图标主体路径 - 描边绘制动画 -->
        <path d="M66.97,100.76c-3.16.68-6.44,1.05-9.8,1.05-7.2,0-14.01-1.64-20.1-4.56V17.89c0-2.83,1.75-5.4,4.41-6.36,4.9-1.76,10.18-2.71,15.68-2.71,1.08,0,2.16.04,3.22.11v52.82c0,2.97,3.82,4.17,5.52,1.73l31.56-45.35C88.1,8.16,75,1.73,60.4,1.08v.04c-1.07-.06-2.14-.1-3.22-.1C27.19,1.02,2.88,25.32,2.88,55.31s24.31,54.3,54.3,54.3c1.24,0,2.47-.05,3.68-.13l-.04.05c12.71-.67,24.25-5.71,33.16-13.64l-7.92-11.37c-1.86-2.67-5.82-2.68-7.69-.01l-11.4,16.25Z" fill="none" stroke="#000000" stroke-width="0.5" stroke-dasharray="600" stroke-dashoffset="600" opacity="0">
          <animate attributeName="stroke-dashoffset" from="600" to="0" dur="1.5s" begin="0.3s" fill="freeze"/>
          <animate attributeName="opacity" from="0" to="1" dur="0.3s" begin="0.3s" fill="freeze"/>
        </path>
        <!-- 图标主体填充淡入 -->
        <path d="M66.97,100.76c-3.16.68-6.44,1.05-9.8,1.05-7.2,0-14.01-1.64-20.1-4.56V17.89c0-2.83,1.75-5.4,4.41-6.36,4.9-1.76,10.18-2.71,15.68-2.71,1.08,0,2.16.04,3.22.11v52.82c0,2.97,3.82,4.17,5.52,1.73l31.56-45.35C88.1,8.16,75,1.73,60.4,1.08v.04c-1.07-.06-2.14-.1-3.22-.1C27.19,1.02,2.88,25.32,2.88,55.31s24.31,54.3,54.3,54.3c1.24,0,2.47-.05,3.68-.13l-.04.05c12.71-.67,24.25-5.71,33.16-13.64l-7.92-11.37c-1.86-2.67-5.82-2.68-7.69-.01l-11.4,16.25Z" opacity="0">
          <animate attributeName="opacity" from="0" to="1" dur="0.8s" begin="1.5s" fill="freeze"/>
        </path>
        <!-- 图标细节填充淡入 -->
        <path d="M109.81,39.29l-13.7,19.73,11.94,17.16c2.68-6.43,4.16-13.48,4.16-20.87,0-5.58-.84-10.96-2.41-16.02Z" opacity="0">
          <animate attributeName="opacity" from="0" to="1" dur="0.6s" begin="2s" fill="freeze"/>
        </path>
      </g>
      <!-- 文字组 -->
      <g>
        <!-- CDF 文字 - 淡入+上滑 -->
        <text class="cls-1" transform="translate(130.67 47.11)" opacity="0">
          <animate attributeName="opacity" from="0" to="1" dur="0.6s" begin="0.8s" fill="freeze"/>
          <animateTransform attributeName="transform" type="translate" from="130.67 55" to="130.67 47.11" dur="0.6s" begin="0.8s" fill="freeze"/>
          <tspan x="0" y="0">CDF</tspan>
        </text>
        <!-- Know 文字 - 淡入+上滑 -->
        <text class="cls-1" transform="translate(130.67 78.57)" opacity="0">
          <animate attributeName="opacity" from="0" to="1" dur="0.6s" begin="1.1s" fill="freeze"/>
          <animateTransform attributeName="transform" type="translate" from="130.67 86" to="130.67 78.57" dur="0.6s" begin="1.1s" fill="freeze"/>
          <tspan x="0" y="0">Know</tspan>
        </text>
        <!-- 副标题 Seeany Knowledge - 逐字淡入 -->
        <g opacity="0">
          <animate attributeName="opacity" from="0" to="1" dur="0.8s" begin="2.2s" fill="freeze"/>
          <path class="cls-2" d="M138.83,87.28c-.45-.33-1.02-.49-1.72-.5-.28,0-.56.03-.84.08s-.52.15-.73.28c-.21.13-.38.31-.51.53-.13.22-.19.5-.19.83,0,.31.09.57.27.76.18.19.43.35.74.48.3.12.65.23,1.04.31.39.08.78.17,1.18.27.4.1.8.21,1.18.34.39.13.73.3,1.04.52.3.22.55.49.73.82s.27.75.27,1.25c0,.54-.13,1-.37,1.38-.24.38-.55.69-.93.93-.38.24-.8.41-1.27.52-.47.11-.93.16-1.4.16-.57,0-1.1-.08-1.61-.22-.5-.14-.95-.36-1.33-.65-.38-.29-.68-.66-.9-1.11-.22-.45-.33-.98-.33-1.59h1.27c0,.43.08.8.24,1.1.16.31.38.56.65.76.27.2.58.35.94.44.36.1.73.14,1.1.15.3,0,.61-.03.91-.08.31-.06.58-.15.83-.29.24-.14.44-.32.6-.56.15-.24.23-.54.23-.91,0-.35-.09-.63-.27-.85-.18-.22-.43-.4-.73-.53-.31-.14-.65-.25-1.04-.34-.39-.09-.78-.18-1.18-.27-.4-.09-.8-.2-1.18-.32-.39-.12-.73-.28-1.04-.47-.31-.2-.55-.45-.73-.75-.18-.31-.27-.69-.27-1.16,0-.51.11-.95.32-1.32.21-.37.49-.68.83-.92.35-.24.74-.42,1.18-.53.44-.12.89-.17,1.35-.17.52,0,1,.07,1.44.19s.83.32,1.17.59c.33.27.6.6.79,1,.19.4.3.88.31,1.44h-1.27c-.07-.73-.33-1.26-.78-1.59Z"/>
          <path class="cls-2" d="M147.9,95.58c-.55.41-1.24.62-2.07.61-.59,0-1.09-.1-1.52-.29-.43-.19-.79-.46-1.08-.8-.29-.34-.51-.75-.65-1.22-.14-.47-.22-.99-.24-1.55,0-.56.09-1.07.26-1.53s.41-.86.72-1.2.67-.6,1.09-.79c.42-.19.88-.28,1.38-.28.65,0,1.19.14,1.62.41.43.27.77.61,1.03,1.03.26.42.44.87.53,1.36s.13.96.11,1.4l-5.48-.02c-.01.32.03.63.11.91.08.29.22.54.41.77.19.22.43.4.72.53.29.13.64.2,1.03.2.51,0,.93-.11,1.25-.35.33-.23.54-.59.65-1.07h1.19c-.16.83-.52,1.44-1.07,1.86ZM147.63,90.88c-.11-.26-.25-.48-.44-.66-.18-.18-.4-.33-.65-.44-.25-.11-.53-.16-.83-.17-.31,0-.59.05-.84.16-.25.11-.47.25-.65.44-.18.19-.32.41-.43.66-.1.25-.17.52-.19.8l4.21.02c-.02-.28-.08-.55-.19-.81Z"/>
          <path class="cls-2" d="M155.5,95.61c-.55.41-1.24.62-2.07.61-.59,0-1.09-.1-1.52-.29-.43-.19-.79-.46-1.08-.8-.29-.34-.51-.75-.65-1.22-.14-.47-.22-.99-.24-1.54,0-.56.09-1.07.26-1.53s.41-.86.72-1.2.67-.6,1.09-.79c.42-.19.88-.28,1.38-.28.65,0,1.19.14,1.62.41.43.27.77.61,1.03,1.03.26.42.44.87.53,1.36s.13.96.11,1.4l-5.48-.02c-.01.32.03.63.11.91.08.29.22.54.41.77.19.22.43.4.72.53.29.13.64.2,1.03.2.51,0,.93-.11,1.25-.35.33-.24.54-.59.65-1.07h1.19c-.16.83-.52,1.44-1.07,1.86ZM155.23,90.91c-.11-.26-.25-.48-.44-.66-.18-.19-.4-.33-.65-.44-.25-.11-.53-.16-.83-.17-.31,0-.59.05-.84.16-.25.11-.47.25-.65.44-.18.19-.32.41-.43.66s-.17.52-.19.8l4.21.02c-.02-.28-.08-.55-.19-.81Z"/>
          <path class="cls-2" d="M168.34,96.11c-.21.12-.5.18-.86.18-.31,0-.56-.09-.74-.27-.18-.18-.27-.46-.27-.86-.33.4-.72.68-1.16.85-.44.17-.91.26-1.43.26-.33,0-.64-.04-.94-.12-.3-.08-.55-.2-.77-.36-.22-.16-.39-.37-.51-.63s-.19-.57-.19-.94c0-.42.08-.76.22-1.02.14-.26.33-.48.56-.64.23-.16.5-.29.8-.37.3-.08.6-.15.91-.21.33-.06.64-.11.94-.14.3-.03.56-.08.79-.14s.41-.15.54-.27c.13-.12.2-.29.2-.52,0-.27-.05-.48-.15-.64-.1-.16-.23-.28-.38-.37-.15-.09-.33-.14-.52-.17s-.38-.04-.57-.04c-.51,0-.93.09-1.28.28-.34.19-.53.56-.56,1.1h-1.2c.02-.46.12-.84.29-1.15.17-.31.4-.56.68-.76.28-.19.61-.33.97-.41.36-.08.75-.13,1.17-.12.33,0,.66.03.98.08.33.05.62.15.88.29.26.15.47.35.63.62.16.26.24.61.24,1.03l-.02,3.76c0,.28.01.49.05.62.03.13.14.2.33.2.1,0,.23-.02.37-.05v.93ZM166.4,92.35c-.15.11-.35.19-.6.24-.25.05-.5.09-.77.12-.27.03-.54.07-.81.11-.28.04-.52.11-.74.2-.22.09-.39.23-.53.4-.14.17-.21.41-.21.71,0,.2.04.37.12.5.08.14.18.25.31.33.13.09.28.15.45.19.17.04.35.06.54.06.4,0,.74-.05,1.02-.16.28-.11.52-.24.7-.41.18-.16.31-.34.4-.53s.13-.37.13-.54v-1.23Z"/>
          <path class="cls-2" d="M170.63,88.82v1.16s.02,0,.02,0c.5-.88,1.3-1.33,2.39-1.32.48,0,.88.07,1.2.2.32.13.58.32.78.56.2.24.34.52.41.84.08.33.12.69.12,1.08l-.02,4.82h-1.2s.02-4.96.02-4.96c0-.45-.13-.81-.39-1.08-.26-.27-.63-.4-1.09-.4-.37,0-.69.05-.96.17-.27.11-.49.27-.68.48-.18.21-.32.45-.41.73-.09.28-.14.58-.14.91l-.02,4.14h-1.2s.03-7.33.03-7.33h1.13Z"/>
          <path class="cls-2" d="M180.21,97.16c-.14.36-.29.66-.42.91-.14.24-.29.44-.45.6-.17.15-.35.27-.55.34-.2.07-.44.1-.7.1-.14,0-.28-.01-.43-.03-.14-.02-.28-.05-.41-.1v-1.11c.11.05.23.09.37.12.14.03.25.05.35.05.25,0,.45-.06.62-.17s.29-.28.38-.5l.5-1.23-2.87-7.29h1.36s2.11,6.01,2.11,6.01h.03l2.08-5.98h1.27s-3.22,8.29-3.22,8.29Z"/>
          <path class="cls-2" d="M187.58,88.89v1.06s-1.46,0-1.46,0l-.02,4.55c0,.14.01.26.03.34.02.09.07.15.14.2.06.05.16.08.27.09s.27.02.46.02h.55s0,1.06,0,1.06h-.92c-.31,0-.58-.03-.8-.07-.22-.04-.4-.12-.54-.24s-.24-.28-.3-.48-.1-.48-.1-.82l.02-4.66h-1.25s0-1.07,0-1.07h1.25s0-2.19,0-2.19h1.2s0,2.2,0,2.2h1.46Z"/>
          <path class="cls-2" d="M190.18,88.91l-.03,7.32h-1.2s.03-7.33.03-7.33h1.2ZM188.98,87.58v-1.47s1.21,0,1.21,0v1.47s-1.21,0-1.21,0Z"/>
          <path class="cls-2" d="M193.19,88.92v1.08s.02,0,.02,0c.55-.83,1.34-1.24,2.37-1.24.45,0,.86.1,1.23.29.37.19.63.51.77.97.25-.4.57-.7.97-.92.4-.22.84-.32,1.33-.32.37,0,.7.04,1,.13s.55.21.76.38.38.39.49.66c.12.27.17.59.17.97l-.02,5.37h-1.2s.02-4.81.02-4.81c0-.23-.02-.44-.05-.64-.04-.2-.11-.37-.21-.52-.1-.15-.25-.26-.43-.35-.18-.09-.42-.13-.71-.13-.59,0-1.06.16-1.4.5-.34.34-.51.79-.52,1.36l-.02,4.56h-1.2s.02-4.81.02-4.81c0-.24-.02-.45-.06-.65s-.11-.37-.22-.52c-.1-.15-.24-.26-.42-.34-.18-.08-.4-.12-.67-.12-.35,0-.65.07-.9.21-.25.14-.45.31-.61.51-.16.2-.27.4-.34.62-.07.21-.11.39-.11.53l-.02,4.56h-1.2s.03-7.33.03-7.33h1.13Z"/>
          <path class="cls-2" d="M209.29,95.84c-.55.41-1.24.62-2.07.62-.59,0-1.09-.1-1.52-.29-.43-.19-.79-.46-1.08-.8-.29-.34-.51-.75-.65-1.22-.14-.47-.22-.99-.24-1.55,0-.56.09-1.07.26-1.53.17-.46.41-.86.72-1.2s.67-.6,1.09-.79c.42-.19.88-.28,1.38-.28.65,0,1.19.14,1.62.41.43.27.77.61,1.03,1.03.26.42.44.87.53,1.36.1.49.13.96.11,1.4l-5.48-.02c-.01.32.03.63.11.91.08.29.22.54.41.77.19.22.43.4.72.53.29.13.64.2,1.03.2.51,0,.93-.11,1.25-.35.33-.23.54-.59.65-1.07h1.19c-.16.83-.52,1.44-1.07,1.86ZM209.01,91.14c-.11-.25-.25-.48-.44-.66s-.4-.33-.65-.44c-.25-.11-.53-.17-.83-.17-.31,0-.59.05-.84.16-.25.11-.47.25-.65.44-.18.19-.32.41-.43.66-.1.25-.17.52-.19.8l4.21.02c-.02-.28-.08-.55-.19-.81Z"/>
          <path class="cls-2" d="M213.55,94.75v1.43c0,.54-.13,1-.38,1.39-.25.39-.65.66-1.19.82v-.71c.16-.06.3-.14.41-.25.11-.11.2-.23.26-.35.07-.13.11-.26.14-.39s.03-.25.02-.37h-.84s0-1.58,0-1.58h1.57Z"/>
          <path class="cls-2" d="M220.9,86.25l-.03,5.99,3.36-3.19h1.61s-2.91,2.66-2.91,2.66l3.09,4.67h-1.53s-2.49-3.84-2.49-3.84l-1.14,1.04v2.78s-1.22,0-1.22,0l.04-10.11h1.2Z"/>
          <path class="cls-2" d="M228.09,89.07v1.16s.02,0,.02,0c.5-.88,1.3-1.33,2.39-1.32.48,0,.88.07,1.2.2.32.13.58.32.78.56s.34.52.41.84c.08.33.12.69.12,1.08l-.02,4.82h-1.2s.02-4.96.02-4.96c0-.45-.13-.81-.39-1.08-.26-.27-.63-.4-1.09-.4-.37,0-.69.05-.96.17-.27.11-.49.27-.68.48-.18.21-.32.45-.41.73-.09.28-.14.58-.14.91l-.02,4.14h-1.2s.03-7.33.03-7.33h1.13Z"/>
          <path class="cls-2" d="M234.65,91.25c.15-.47.38-.87.69-1.21s.68-.61,1.12-.81c.44-.2.95-.29,1.53-.29.58,0,1.1.1,1.54.3s.81.47,1.11.82.53.75.67,1.22c.15.47.22.97.22,1.51s-.08,1.04-.23,1.5-.38.86-.68,1.21c-.3.34-.68.61-1.11.8-.44.19-.95.29-1.54.28-.58,0-1.09-.1-1.53-.3-.44-.19-.82-.47-1.12-.81-.3-.35-.53-.75-.68-1.21-.15-.46-.22-.96-.22-1.5s.08-1.04.23-1.51ZM235.87,93.95c.12.34.28.63.48.87.21.23.45.41.73.53.28.12.57.19.89.19.31,0,.61-.06.88-.18.28-.12.52-.3.73-.53.21-.23.37-.52.49-.86.12-.34.18-.74.18-1.18,0-.44-.06-.84-.17-1.18-.12-.34-.28-.64-.49-.87-.21-.24-.45-.42-.73-.54-.28-.12-.57-.19-.88-.19-.31,0-.61.06-.89.18-.28.12-.52.3-.73.53-.21.24-.37.53-.49.87-.12.34-.18.74-.18,1.18,0,.44.06.84.17,1.18Z"/>
          <path class="cls-2" d="M248.91,96.48l-1.46-5.83h-.03l-1.5,5.81h-1.3s-2.32-7.34-2.32-7.34h1.33s1.63,6,1.63,6h.03l1.5-5.98h1.32s1.5,6,1.5,6h.03l1.67-5.98h1.25s-2.37,7.32-2.37,7.32h-1.27Z"/>
          <path class="cls-2" d="M264.09,96.51c-.21.12-.5.18-.86.18-.31,0-.56-.09-.74-.27s-.27-.46-.27-.86c-.33.4-.72.68-1.16.85-.44.17-.91.26-1.43.26-.33,0-.64-.04-.94-.12-.3-.08-.55-.2-.77-.36-.22-.16-.39-.37-.51-.63s-.19-.57-.19-.94c0-.42.08-.76.22-1.02.14-.26.33-.48.56-.64.23-.16.5-.29.8-.37.3-.08.6-.15.91-.21.33-.06.64-.11.94-.14.3-.03.56-.08.79-.14s.41-.15.54-.27c.13-.12.2-.29.2-.52,0-.27-.05-.48-.15-.64-.1-.16-.23-.28-.38-.37-.15-.09-.33-.14-.52-.17s-.38-.04-.57-.05c-.51,0-.93.09-1.28.29s-.53.56-.56,1.1h-1.2c.02-.46.12-.84.29-1.15.17-.31.4-.56.68-.76.28-.19.61-.33.97-.41.36-.08.75-.13,1.17-.12.33,0,.66.03.98.08.33.05.62.15.88.29.26.15.47.35.63.62.16.26.24.61.24,1.03l-.02,3.76c0,.28.01.49.05.62.03.13.14.2.33.2.1,0,.23-.02.37-.05v.93ZM262.15,92.75c-.15.11-.35.19-.6.24-.25.05-.5.09-.77.12-.27.03-.54.07-.81.11-.28.04-.52.11-.74.2-.22.09-.39.23-.53.4-.14.17-.21.41-.21.71,0,.2.04.37.12.5.08.14.18.25.31.33.13.09.28.15.45.19.17.04.35.06.54.06.4,0,.74-.05,1.02-.16.28-.11.52-.24.7-.4.18-.16.31-.34.4-.53s.13-.37.13-.54v-1.23Z"/>
          <path class="cls-2" d="M266.37,89.23v1.16s.02,0,.02,0c.5-.88,1.3-1.33,2.39-1.32.48,0,.88.07,1.2.2.32.13.58.32.78.56.2.24.34.52.41.84.08.33.12.69.12,1.08l-.02,4.82h-1.2s.02-4.96.02-4.96c0-.45-.13-.81-.39-1.08-.26-.27-.63-.4-1.09-.4-.37,0-.69.05-.96.16-.27.11-.49.27-.68.48-.18.21-.32.45-.41.73-.09.28-.14.58-.14.91l-.02,4.14h-1.2s.03-7.33.03-7.33h1.13Z"/>
          <path class="cls-2" d="M275.95,97.57c-.14.36-.29.66-.42.9-.14.25-.29.45-.45.6-.17.15-.35.27-.55.34-.2.07-.44.1-.7.1-.14,0-.28-.01-.43-.03-.14-.02-.28-.05-.41-.1v-1.1c.11.05.23.09.37.12.14.03.25.05.35.05.25,0,.45-.06.62-.17s.29-.28.38-.5l.5-1.23-2.87-7.29h1.36s2.11,6.01,2.11,6.01h.03l2.08-5.98h1.27s-3.22,8.29-3.22,8.29Z"/>
          <path class="cls-2" d="M283.32,89.3v1.06s-1.46,0-1.46,0l-.02,4.55c0,.14.01.25.03.34.02.09.07.15.14.2.06.05.16.08.27.09s.27.02.46.02h.55s0,1.06,0,1.06h-.92c-.31,0-.58-.03-.8-.07-.22-.04-.4-.12-.54-.24s-.24-.27-.3-.48-.1-.48-.1-.82l.02-4.66h-1.25s0-1.07,0-1.07h1.25s0-2.19,0-2.19h1.2s0,2.2,0,2.2h1.46Z"/>
          <path class="cls-2" d="M285.93,89.31l-.03,7.32h-1.2s.03-7.33.03-7.33h1.2ZM284.73,87.99v-1.47s1.21,0,1.21,0v1.47s-1.21,0-1.21,0Z"/>
          <path class="cls-2" d="M288.93,89.32v1.08s.02,0,.02,0c.55-.83,1.34-1.24,2.37-1.24.45,0,.86.1,1.23.29.37.19.63.51.77.97.25-.4.57-.7.97-.92.4-.22.84-.32,1.33-.32.37,0,.7.04,1,.13s.55.21.76.38.38.39.49.66c.12.27.17.59.17.97l-.02,5.37h-1.2s.02-4.81.02-4.81c0-.23-.02-.44-.05-.64-.04-.2-.11-.37-.21-.52-.1-.15-.25-.26-.43-.35-.18-.09-.42-.13-.71-.13-.59,0-1.06.16-1.4.5-.34.34-.51.79-.52,1.36l-.02,4.56h-1.2s.02-4.81.02-4.81c0-.24-.02-.45-.06-.65s-.11-.37-.22-.52c-.1-.15-.24-.26-.42-.34-.18-.08-.4-.12-.67-.12-.35,0-.65.07-.9.21-.25.14-.45.31-.61.51-.16.2-.27.4-.34.61-.07.21-.11.39-.11.53l-.02,4.56h-1.2s.03-7.33.03-7.33h1.13Z"/>
          <path class="cls-2" d="M305.03,96.25c-.55.41-1.24.62-2.07.62-.59,0-1.09-.1-1.52-.29-.43-.19-.79-.46-1.08-.8-.29-.34-.51-.75-.65-1.22-.14-.47-.22-.99-.24-1.55,0-.56.09-1.07.26-1.53.17-.46.41-.86.72-1.2s.67-.6,1.09-.79c.42-.19.88-.28,1.38-.28.65,0,1.19.14,1.62.41.43.27.77.62,1.03,1.03.26.42.44.87.53,1.36.1.49.13.96.11,1.4l-5.48-.02c-.01.32.03.63.11.91.08.29.22.54.41.77.19.22.43.4.72.53.29.13.64.2,1.03.2.51,0,.93-.11,1.25-.35.33-.23.54-.59.65-1.07h1.19c-.16.83-.52,1.44-1.07,1.86ZM304.76,91.54c-.11-.25-.25-.48-.44-.66s-.4-.33-.65-.44c-.25-.11-.53-.17-.83-.17-.31,0-.59.05-.84.16-.25.11-.47.25-.65.44-.18.19-.32.41-.43.66-.1.25-.17.52-.19.8l4.21.02c-.02-.28-.08-.55-.19-.81Z"/>
        </g>
        <!-- 星星装饰 - 缩放出现+旋转 -->
        <path d="M221.3,8.35l1.6,4.33c.15.42.48.74.9.9l4.33,1.6c1.32.49,1.32,2.36,0,2.85l-4.33,1.6c-.42.15-.74.48-.9.9l-1.6,4.33c-.49,1.32-2.36,1.32-2.85,0l-1.6-4.33c-.15-.42-.48-.74-.9-.9l-4.33-1.6c-1.32-.49-1.32-2.36,0-2.85l4.33-1.6c.42-.15.74-.48.9-.9l1.6-4.33c.49-1.32,2.36-1.32,2.85,0Z" opacity="0">
          <animate attributeName="opacity" from="0" to="1" dur="0.5s" begin="1.8s" fill="freeze"/>
          <animateTransform attributeName="transform" type="scale" from="0" to="1" dur="0.5s" begin="1.8s" fill="freeze" additive="sum"/>
          <animateTransform attributeName="transform" type="rotate" from="0 221.3 13" to="360 221.3 13" dur="12s" begin="2.5s" repeatCount="indefinite" additive="sum"/>
        </path>
      </g>
    </g>
  </g>
</svg>